<svg viewBox="0 0 128 128" xmlns="http://www.w3.org/2000/svg">
  <path style="fill:#920de9" d="M0 0h128v128H0z"/>
  <path style="fill:#fff" d="m122.315 59.765.146-3.02c.565-11.398 1.202-24.319-5.463-34.571-2.026-3.187-7.002-4.974-10.974-5.585-1.804-.302-3.601-.612-5.392-.921-8.13-1.403-15.809-2.731-23.917-3.179-2.761 0-7.126-.747-9.836-1.223a.8838.8838 0 0 0-.459-.14c-.678-.088-1.383-.233-2.095-.378-1.272-.26-2.587-.527-3.882-.527-.341 0-.678.02-.896.053-1.586 0-3.014.276-4.396.545-1.358.263-2.641.512-4.051.512H40.199c-2.89 0-5.318.044-8.066.593-3.584.651-8.021 1.686-10.561 3.947-.149.15-.298.28-.446.414-.401.358-.853.764-1.275 1.395-.809 1.088-2.43 3.282-2.43 3.282-.655.808-1.312 1.579-1.955 2.335-2.853 3.352-5.55 6.516-6.922 11.321-1.64 4.93-2.09 10.364-2.525 15.622-.078.961-.159 1.915-.245 2.888-.057 1.081-.124 2.173-.19 3.272-.251 4.146-.511 8.434-.292 12.315 0 1.195.169 2.285.33 3.338.142.929.276 1.807.276 2.661V86.43c0 .548-.006 1.103-.014 1.662-.041 3.43-.089 6.977 1.408 10.464.474.946 1.088 1.858 1.738 2.826.509.761 1.04 1.552 1.556 2.451l.51.774c.849 1.295 1.65 2.518 2.942 3.799 1.782 1.386 3.704 2.229 5.564 3.045.821.36 1.651.723 2.577 1.179 5.418 1.971 10.719 2.407 16.332 2.869l2.138.179c5.337.564 10.215.824 15.353.824 1.077 0 2.153-.065 3.26-.133 1.182-.083 2.369-.129 3.553-.139 2.23 0 4.524.293 6.744.578 1.515.195 3.082.397 4.608.504 3.073.314 6.162.471 9.251.467h.001c5.262 0 10.628-.447 15.533-1.292.88-.162 1.845-.249 2.865-.342 2.414-.217 4.912-.444 6.916-1.649 1.524-.761 2.959-2 4.274-3.664 2.209-1.897 4.078-4.186 5.088-6.214 2.209-3.614 2.453-7.95 2.687-12.145.1-1.789.193-3.483.436-5.098.185-1.291.402-2.389.605-3.433.395-2.01.766-3.908.765-6.465.139-3.059-.003-6.132-.138-9.103-.137-2.984-.265-5.808-.135-8.609ZM53.446 92.037c-.106.106-.209.212-.31.322v.069c0 .414-.28.776-.682.878-.342.088-1.404.353-2.067.411-.588.255-1.325.403-2.011.403-.023.016-4.303.784-6.268.784h-1.909c-.697 0-1.354-.169-1.935-.321-.41-.105-.794-.203-1.061-.203-4.256-.643-7.642-3.226-8.763-6.593-1.81-5.427-1.464-11.146-1.129-16.677.129-2.152.266-4.375.266-6.525-.077-1.659-.22-3.274-.36-4.853-.359-4.036-.7-7.846.101-12.25 1.955-7.337 5.162-11.264 9.297-11.455.309-.22.596-.362.856-.422.894-.436 1.627-.655 2.182-.655h2.725c1.441 0 3.429.253 5.351.499l1.026.128a.919.919 0 0 1 .618.36c.175.085.511.204.727.282.326.118.642.239.853.342.089.043.17.1.239.17.802.804 1.213 1.83 1.155 2.889a3.9278 3.9278 0 0 1-1.504 2.825c-1.061.883-2.39.987-3.296.987-.663 0-1.346-.067-2.003-.133-1.667-.167-3.029-.07-4.418.033-.908.068-1.782.13-2.59.13-.008.004-.008.004-.012 0a.8855.8855 0 0 1-.188.279c-.272.273-.56.545-.845.818-.284.27-.569.545-.841.816-.222.355-.808 1.318-.976 1.825a.8757.8757 0 0 1-.114.229c-.279.403-.568.881-.618 1.024l.025 2.822c0 1.182.049 2.556.101 3.966.052 1.511.108 3.06.108 4.467l.16.967c.26 1.622.554 3.458.314 5.141a77.883 77.883 0 0 1-.211 3.268c-.545 7.099-1.289 16.805 6.331 17.991.388-.11 1.175-.314 1.701-.314.644-.088 1.398-.231 2.161-.377 1.467-.277 2.981-.565 4.651-.565h1.633c1.441 0 2.617 1.728 2.926 2.653.539 1.624-.72 2.887-1.396 3.565Zm50.859-39.995c-.126.511-.189 1.085-.252 1.658-.055.597-.144 1.188-.265 1.776-.004.521-.031 2.452-.272 3.544-.007.764-.063 1.788-.122 2.886-.073 1.285-.152 2.674-.152 3.825 0 1.001.019 2.026.036 3.067.125 7.233.267 15.424-5.382 20.931-.151.294-.373.548-.643.736-.357.578-.88 1.134-1.36 1.614-1.538 1.539-3.31 2.468-4.988 2.714-.273.069-.553.107-.837.111h-1.362c-.79 0-1.581.071-2.373.141-.844.075-1.687.147-2.532.147a12.37 12.37 0 0 1-1.835.122c-1.905 0-5.262-.366-6.356-2.826-.748-1.605-.37-2.786.081-3.492 1.016-1.596 3.203-2.162 4.91-2.162 1.248 0 2.37.282 3.206.801h4.353c1.451 0 2.489-.898 3.59-1.849.257-.224.509-.442.763-.645 0-.05.2-.703.217-.919.009-.086.027-.174.045-.26l.072-.213c.235-.698.455-1.354.455-1.954 0-.109.02-.216.057-.32.598-1.594.761-3.376.936-5.264.047-.53.098-1.065.157-1.599.448-2.703.61-5.478.766-8.16.223-3.867.454-7.862 1.519-11.757v-2.332c0-.499-.101-1.039-.195-1.56a9.769 9.769 0 0 1-.186-1.329c-.241-.484-.499-.96-.774-1.427-.319-.565-.651-1.154-.877-1.603-.55-1.372-.918-1.836-2.061-2.029-.246-.04-.462-.381-.601-.381h-.066c-.065 0-2.471-.151-3.543-.151-1.085 0-2.244-.129-3.269-.243-.826-.093-1.609-.181-2.182-.181l-.849-.111c-1.639-.214-4.692-.61-4.692-3.525 0-.69.081-2.373.81-3.104.589-.745 1.593-1.163 2.914-1.163.456 0 .96.045 1.586.143.445.039.833.072 1.174.158l.549-.003c1.102 0 2.624.04 3.593.234.751.019 1.616.171 2.461.35.795.168 1.543.328 2.265.328h2.455c2.293 0 3.588.887 4.927 1.957 2.482 2.474 3.187 6.93 3.7 10.185l.171 1.066c.039.149.286 1.228.286 1.848 0 .074-.01.147-.028.22Z"/>
</svg>
