<?xml version="1.0" encoding="utf-8"?>
<!-- Generator: Adobe Illustrator 27.5.0, SVG Export Plug-In . SVG Version: 6.00 Build 0)  -->
<svg version="1.1" id="Layer_1" xmlns="http://www.w3.org/2000/svg" xmlns:xlink="http://www.w3.org/1999/xlink" x="0px" y="0px"
	 viewBox="0 0 450 400" style="enable-background:new 0 0 450 400;" xml:space="preserve">
<g>
	<linearGradient id="SVGID_1_" gradientUnits="userSpaceOnUse" x1="96.2102" y1="157.4472" x2="144.755" y2="241.5292">
		<stop  offset="0" style="stop-color:#FFFFFF"/>
		<stop  offset="0.0867" style="stop-color:#F8FDFF"/>
		<stop  offset="0.217" style="stop-color:#E3F7FF"/>
		<stop  offset="0.3749" style="stop-color:#C1EDFE"/>
		<stop  offset="0.5544" style="stop-color:#92DFFE"/>
		<stop  offset="0.7519" style="stop-color:#56CDFD"/>
		<stop  offset="0.9617" style="stop-color:#0EB7FC"/>
		<stop  offset="1" style="stop-color:#00B3FC"/>
	</linearGradient>
	<path style="opacity:0.5;fill:url(#SVGID_1_);" d="M151.632,227.568c-14.551-7.597-38.904-21.201-56.856-32.843
		S65.06,175.48,75.381,169.473c11.902-6.927,28.21,6.362,48.206,19.598c21.856,14.469,31.573,22.527,41.869,30.344
		c6.596,5.008,5.113,6.616,1.775,9.056C164.078,230.776,159.747,231.805,151.632,227.568z"/>

		<linearGradient id="SVGID_00000016058021774391284390000012533316734583113867_" gradientUnits="userSpaceOnUse" x1="176.2039" y1="319.9862" x2="223.5992" y2="402.0774" gradientTransform="matrix(-1 0 0 -1 441.5101 677.2521)">
		<stop  offset="0" style="stop-color:#FFFFFF"/>
		<stop  offset="0.0867" style="stop-color:#F8FDFF"/>
		<stop  offset="0.217" style="stop-color:#E3F7FF"/>
		<stop  offset="0.3749" style="stop-color:#C1EDFE"/>
		<stop  offset="0.5544" style="stop-color:#92DFFE"/>
		<stop  offset="0.7519" style="stop-color:#56CDFD"/>
		<stop  offset="0.9617" style="stop-color:#0EB7FC"/>
		<stop  offset="1" style="stop-color:#00B3FC"/>
	</linearGradient>
	<path style="opacity:0.5;fill:url(#SVGID_00000016058021774391284390000012533316734583113867_);" d="M216.49,285.9
		c14.551,7.597,38.904,21.201,56.856,32.843c17.952,11.642,23.056,20.521,12.734,26.529c-11.902,6.926-31.58-3.788-51.575-17.024
		c-21.856-14.469-36.42-24.929-41.87-30.344c-0.965-8.936,1.829-8.895,6.695-11.967C204.503,282.671,208.376,281.664,216.49,285.9z"
		/>

		<linearGradient id="SVGID_00000015345515030526954860000013010522780176030635_" gradientUnits="userSpaceOnUse" x1="185.9651" y1="166.752" x2="234.2636" y2="250.4075" gradientTransform="matrix(-1 0 0 1 518.3385 0)">
		<stop  offset="0" style="stop-color:#FFFFFF"/>
		<stop  offset="0.0867" style="stop-color:#F8FDFF"/>
		<stop  offset="0.217" style="stop-color:#E3F7FF"/>
		<stop  offset="0.3749" style="stop-color:#C1EDFE"/>
		<stop  offset="0.5544" style="stop-color:#92DFFE"/>
		<stop  offset="0.7519" style="stop-color:#56CDFD"/>
		<stop  offset="0.9617" style="stop-color:#0EB7FC"/>
		<stop  offset="1" style="stop-color:#00B3FC"/>
	</linearGradient>
	<path style="opacity:0.5;fill:url(#SVGID_00000015345515030526954860000013010522780176030635_);" d="M282.679,239.865
		c14.551-7.597,38.904-21.201,56.856-32.843c17.952-11.642,26.571-20.747,16.249-26.753c-11.902-6.927-34.256,1.064-54.252,14.301
		c-21.856,14.469-31.573,22.527-41.869,30.344c-6.596,5.008-3.131,9.177,3.299,13.249
		C269.379,242.224,274.565,244.101,282.679,239.865z"/>

		<linearGradient id="SVGID_00000094609277584729153170000016333626654576823196_" gradientUnits="userSpaceOnUse" x1="64.602" y1="365.6416" x2="93.0352" y2="316.3938">
		<stop  offset="0" style="stop-color:#FFFFFF"/>
		<stop  offset="0.0867" style="stop-color:#F8FDFF"/>
		<stop  offset="0.217" style="stop-color:#E3F7FF"/>
		<stop  offset="0.3749" style="stop-color:#C1EDFE"/>
		<stop  offset="0.5544" style="stop-color:#92DFFE"/>
		<stop  offset="0.7519" style="stop-color:#56CDFD"/>
		<stop  offset="0.9617" style="stop-color:#0EB7FC"/>
		<stop  offset="1" style="stop-color:#00B3FC"/>
	</linearGradient>
	<polygon style="opacity:0.5;fill:url(#SVGID_00000094609277584729153170000016333626654576823196_);" points="75.009,371.65
		25.761,343.217 82.628,310.385 131.876,338.818 	"/>

		<linearGradient id="SVGID_00000080170365140669917340000013172735986181954958_" gradientUnits="userSpaceOnUse" x1="423.992" y1="374.2107" x2="452.5893" y2="324.6789" gradientTransform="matrix(-1 0 0 1 793.1813 0)">
		<stop  offset="0" style="stop-color:#FFFFFF"/>
		<stop  offset="0.0867" style="stop-color:#F8FDFF"/>
		<stop  offset="0.217" style="stop-color:#E3F7FF"/>
		<stop  offset="0.3749" style="stop-color:#C1EDFE"/>
		<stop  offset="0.5544" style="stop-color:#92DFFE"/>
		<stop  offset="0.7519" style="stop-color:#56CDFD"/>
		<stop  offset="0.9617" style="stop-color:#0EB7FC"/>
		<stop  offset="1" style="stop-color:#00B3FC"/>
	</linearGradient>
	<polygon style="opacity:0.5;fill:url(#SVGID_00000080170365140669917340000013172735986181954958_);" points="354.222,382.474
		412.426,349.248 355.56,316.416 297.355,349.642 	"/>

		<linearGradient id="SVGID_00000010276143704730893450000011938971922440773524_" gradientUnits="userSpaceOnUse" x1="546.8204" y1="163.7963" x2="562.0622" y2="137.3969" gradientTransform="matrix(-1 0 0 -1 793.1813 311.3783)">
		<stop  offset="0" style="stop-color:#FFFFFF"/>
		<stop  offset="0.0867" style="stop-color:#F8FDFF"/>
		<stop  offset="0.217" style="stop-color:#E3F7FF"/>
		<stop  offset="0.3749" style="stop-color:#C1EDFE"/>
		<stop  offset="0.5544" style="stop-color:#92DFFE"/>
		<stop  offset="0.7519" style="stop-color:#56CDFD"/>
		<stop  offset="0.9617" style="stop-color:#0EB7FC"/>
		<stop  offset="1" style="stop-color:#00B3FC"/>
	</linearGradient>
	<polygon style="opacity:0.5;fill:url(#SVGID_00000010276143704730893450000011938971922440773524_);" points="242.191,145.303
		265.661,158.725 235.289,176.26 211.819,162.839 	"/>
</g>
<g>
	<g>
		<path style="fill:#C9B3FF;" d="M140.36,173.908l45.49-26.264c3.972-2.294,10.211-2.569,13.622-0.599l28.946,16.712
			c0.043-0.616,0.091-1.232,0.136-1.848L200.306,145.6c-3.928-2.269-10.788-1.999-15.29,0.599l-46.108,26.62
			C139.4,173.174,139.882,173.538,140.36,173.908z"/>
	</g>
	<g>
		<path style="fill:#C9B3FF;" d="M421.547,257.233l-21.883-12.634c-0.051,0.643-0.106,1.285-0.168,1.926l21.175,12.226
			c1.896,1.094,2.939,2.571,2.939,4.156c0,1.996-1.584,4.056-4.347,5.651l-52.916,30.551c0.313,0.494,0.634,0.983,0.955,1.472
			l52.837-30.506c3.32-1.917,5.223-4.53,5.223-7.169C425.362,260.669,424.007,258.654,421.547,257.233z"/>
	</g>
	<g>
		<path style="fill:#C9B3FF;" d="M409.494,250.307l-13.961-8.06c-4.697-2.712-8.666-10.329-8.666-16.635v-72.707h-1.752v72.707
			c0,6.972,4.281,15.115,9.542,18.153l14.837,8.566V250.307z"/>
	</g>
	<path style="fill:#C9B3FF;" d="M421.867,271.521L228.5,159.813v1.963l192.518,111.217c1.839,1.062,2.851,2.494,2.851,4.032
		c0,1.937-1.538,3.934-4.218,5.482l-73.425,42.392v1.963l74.274-42.883c3.22-1.859,5.068-4.394,5.068-6.954
		C425.568,274.854,424.254,272.899,421.867,271.521z"/>
	<path style="fill:#C9B3FF;" d="M176.239,256.531l-64.232-37.107c-0.501,0.36-0.997,0.728-1.487,1.104l64.869,37.475
		c1.839,1.062,2.851,2.493,2.851,4.032c0,1.937-1.538,3.934-4.218,5.482l-73.425,42.392v1.963l74.274-42.883
		c3.22-1.86,5.068-4.394,5.068-6.954C179.94,259.864,178.625,257.909,176.239,256.531z"/>
	<path style="fill:#C9B3FF;" d="M91.562,204.557c0-1.538,1.012-2.97,2.851-4.032l87.055-50.292
		c-0.432-0.407-0.875-0.804-1.316-1.202l-86.589,50.022c-2.386,1.378-3.701,3.333-3.701,5.504c0,2.56,1.847,5.094,5.068,6.954
		l74.274,42.883v-1.963l-73.425-42.392C93.099,208.491,91.562,206.494,91.562,204.557z"/>
</g>
<g>
	<g>
		<polygon style="opacity:0.5;fill:#61DCFF;" points="130.632,89.217 97.819,108.161 97.819,148.217 130.632,129.272 		"/>
		<polygon style="opacity:0.5;fill:#00B3FC;" points="117.133,134.747 100.37,144.425 100.37,126.189 117.133,116.511 		"/>
		<polygon style="opacity:0.5;fill:#00B3FC;" points="119.309,98.067 119.309,111.987 128.434,106.719 128.434,92.799 		"/>
		<polygon style="opacity:0.5;fill:#2E57AA;" points="119.309,116.254 119.309,133.102 128.434,127.834 128.434,110.986 		"/>
		<polygon style="opacity:0.5;fill:#2E57AA;" points="117.133,101.789 100.37,111.467 100.37,109.619 117.133,99.941 		"/>
		<polygon style="opacity:0.5;fill:#2E57AA;" points="117.133,105.609 100.37,115.287 100.37,113.439 117.133,103.761 		"/>
		<polygon style="opacity:0.5;fill:#2E57AA;" points="117.133,109.559 100.37,119.237 100.37,117.389 117.133,107.711 		"/>
		<polygon style="opacity:0.5;fill:#2E57AA;" points="117.133,113.379 100.37,123.057 100.37,121.208 117.133,111.53 		"/>
	</g>
	<g>
		<path style="opacity:0.5;fill:#61DCFF;" d="M176.087,88.644c0,5.923-3.601,12.804-8.043,15.368
			c-4.442,2.565-8.043-0.158-8.043-6.081c0-5.923,3.601-12.804,8.043-15.368C172.486,79.999,176.087,82.721,176.087,88.644z"/>
		<path style="fill:#00B3FC;" d="M172.111,91.321c0,2.51-1.526,5.425-3.408,6.512c-1.882,1.087-3.409-0.067-3.409-2.577
			c0-2.51,1.526-5.426,3.409-6.512C170.585,87.657,172.111,88.811,172.111,91.321z"/>
	</g>
	<polygon style="opacity:0.5;fill:#61DCFF;" points="140.754,99.596 140.754,105.555 149.878,100.286 149.878,94.328 	"/>
	<polygon style="opacity:0.5;fill:#61DCFF;" points="162.652,67.869 162.652,73.827 171.777,68.559 171.777,62.601 	"/>
	<g>
		<path style="opacity:0.5;fill:#61DCFF;" d="M158.078,73.179c0,5.923-3.601,12.804-8.043,15.368
			c-4.442,2.565-8.043-0.158-8.043-6.081c0-5.923,3.601-12.804,8.043-15.368C154.477,64.533,158.078,67.256,158.078,73.179z"/>
		<path style="fill:#00B3FC;" d="M154.101,75.855c0,2.51-1.526,5.426-3.408,6.512c-1.882,1.087-3.408-0.067-3.408-2.577
			c0-2.51,1.526-5.425,3.408-6.512C152.575,72.191,154.101,73.345,154.101,75.855z"/>
	</g>
	<g>
		<path style="fill:#FFAD97;" d="M175.418,110.428c-0.226-2.419-1.66-8.607-3.182-11.553c-0.071-0.435-0.665-4.197-0.352-6.114
			c0.333-2.036-0.552-3.719-1.792-3.364c-1.24,0.354-1.774,2.612-1.774,4.693c0,0.757,0,1.992,0,1.992s-1.008-1.151-1.458-1.682
			c-0.563-0.664-1.063-0.03-0.563,1.151c0.237,0.56,0.554,1.208,1.245,2.087c0.565,0.719,1.381,2.6,1.661,3.267
			c0.385,3.279,0.644,8.063,0.644,11.136c0,7.579-2.127,10.54-2.127,10.54l4.916,1.327
			C172.636,123.908,175.836,114.894,175.418,110.428z"/>
		<path style="fill:#FF9522;" d="M167.421,118.707c0,0,6.442-1.894,6.54,3.512c0.227,12.513-6.648,9.769-6.65,8.831l-1.583-4.31
			L167.421,118.707z"/>
		<path style="fill:#0745A8;" d="M169.608,223.21c-0.687,1.636-2.272,1.484-5.475,0.331c-2.843-1.023-5.188-2.18-7.209-3.675
			c-2.021-1.496-2.042-1.694-2.309-2.706c-0.374-1.416,1.693-2.209,5.13-1.142c0.339,0.106,0.652,0.206,0.945,0.303
			c-0.633,0.106-1.288,0.34-1.57,0.87c-0.625,1.173,1.328,2.43,3.385,3.458c2.056,1.028,3.739,1.028,4.767,0.561
			c0.753-0.342,1.763-0.782,2.252-0.994C169.732,221.59,170.02,222.227,169.608,223.21z"/>
		<path style="fill:#FFC5B3;" d="M151.235,223.248c0.282-0.53,0.937-0.764,1.57-0.87c1.896,0.624,2.843,1.049,2.843,1.049
			s-0.507-8.851-1.09-15.667c-0.922-5.979-1.899-13.24-1.826-17.022c0.008-0.381-0.056-11.154-0.06-11.711
			c0.942,0.464,7.031,1.284,9.083,1.152c-0.036,0.308-0.384,10.723-0.406,14.44c-0.035,5.757,0.259,12.885,0.221,12.443h0
			c0.189,4.642,0.304,11.509-0.011,15.174c-0.162,1.888-0.059,3.124,0.079,4.036c-0.49,0.213-1.5,0.652-2.252,0.995
			c-1.028,0.467-2.711,0.467-4.767-0.561C152.563,225.678,150.61,224.421,151.235,223.248z"/>
		<path style="fill:#FFC5B3;" d="M159.12,217.191c0.282-0.53,0.937-0.764,1.57-0.87c1.896,0.624,2.843,1.048,2.843,1.048
			s-0.221-6.595-0.552-11.701c-0.275-4.238-0.855-23.839-0.943-26.641c2.946-0.425,6.2,0.286,8.418-1.647
			c0.007,0.678-0.018,11.097,0.041,11.775c0.302,3.454-0.41,8.214-0.679,11.67c-0.228,2.921-0.112,12.311-0.373,15.354
			c-0.163,1.888-0.059,3.123,0.079,4.036c-0.49,0.212-1.5,0.652-2.252,0.994c-1.028,0.467-2.711,0.467-4.767-0.561
			C160.448,219.621,158.495,218.364,159.12,217.191z"/>
		<path style="fill:#0745A8;" d="M161.723,229.268c-0.687,1.636-2.272,1.484-5.476,0.331c-2.843-1.023-5.188-2.18-7.209-3.675
			c-2.021-1.496-2.042-1.694-2.309-2.706c-0.374-1.416,1.693-2.21,5.13-1.142c0.339,0.105,0.652,0.206,0.945,0.303
			c-0.633,0.106-1.288,0.34-1.57,0.87c-0.624,1.173,1.328,2.43,3.385,3.458c2.056,1.028,3.738,1.028,4.767,0.561
			c0.753-0.342,1.762-0.782,2.252-0.995C161.847,227.647,162.136,228.284,161.723,229.268z"/>
		<path style="fill:#00B3FC;" d="M170.947,181.157c-8.785,5.855-16.721,2.33-19.056,1.185c-0.064-5.141-0.218-17.58,0.974-23.282
			c0.644-3.082,2.101-7.445,2.101-7.445l14.201-0.884c0,0,3.105,3.978,3.722,9.598c0.534,4.873-0.075,7.501-0.434,10.449
			C172.171,173.112,171.028,179.198,170.947,181.157z"/>
		<g>
			<path style="fill:#002F68;" d="M165.531,104.633c3.706,0.59,6.423,2.507,6.423,4.782c0,0.058-0.004,0.115-0.008,0.172
				c-0.028,0.461-0.166,0.907-0.402,1.328c-0.307-0.547-0.778-1.053-1.38-1.5c-1.144-0.85-2.763-1.484-4.633-1.782V104.633z"/>
			<path style="fill:#37A0F5;" d="M165.465,104.736c3.642,0.58,6.312,2.464,6.312,4.699c0,0.057-0.004,0.113-0.008,0.169
				c-0.027,0.453-0.163,0.891-0.395,1.305c-0.302-0.537-0.764-1.035-1.356-1.474c-1.124-0.835-2.715-1.458-4.553-1.751V104.736z"/>
			<g>
				<path style="fill:#002F68;" d="M159.636,106.312l-9.656,5.575c-0.567,0.327-1.03-0.023-1.03-0.779v-3.914
					c0-0.756,0.464-1.641,1.03-1.969l9.656-5.575c0.567-0.327,1.03,0.023,1.03,0.779v3.914
					C160.666,105.099,160.202,105.984,159.636,106.312z"/>
				<path style="fill:#002F68;" d="M150.38,112.553l-1.102-0.633l0.33-0.785c0,0,1.319,0.554,1.319,0.591
					C150.927,111.763,150.38,112.553,150.38,112.553z"/>
				<g>
					<polygon style="fill:#002F68;" points="161.38,100.212 160.318,99.604 159.861,100.057 160.849,100.957 					"/>
				</g>
				<path style="fill:#61DCFF;" d="M160.721,106.935l-9.656,5.575c-0.567,0.327-1.03-0.023-1.03-0.779v-3.914
					c0-0.756,0.464-1.642,1.03-1.969l9.656-5.575c0.567-0.327,1.03,0.023,1.03,0.779v3.914
					C161.751,105.721,161.288,106.607,160.721,106.935z"/>
				<polygon style="fill:#61DCFF;" points="161.38,100.212 165.195,102.393 154.163,114.714 150.38,112.553 				"/>
				<g>
					<path style="fill:#41A0E2;" d="M151.04,112.246l1.477,0.853c0.28,0.162,0.509-0.011,0.509-0.385v-1.97
						c0-0.373-0.229-0.811-0.509-0.973l-1.477-0.853c-0.28-0.162-0.509,0.012-0.509,0.385v1.97
						C150.531,111.647,150.76,112.084,151.04,112.246z"/>
					<polygon style="fill:#41A0E2;" points="150.694,108.901 150.841,108.81 150.89,108.855 150.745,108.991 					"/>
					<polygon style="fill:#41A0E2;" points="152.986,113.039 152.822,113.139 152.76,113.039 152.963,112.952 					"/>
					<path style="fill:#FFFFFF;" d="M151.157,112.172l1.477,0.853c0.28,0.162,0.509-0.012,0.509-0.385v-1.97
						c0-0.373-0.229-0.811-0.509-0.973l-1.477-0.853c-0.28-0.162-0.509,0.011-0.509,0.385v1.97
						C150.648,111.573,150.877,112.011,151.157,112.172z"/>
					<path style="fill:#41A0E2;" d="M151.231,110.572c0,0.463,0.281,1,0.628,1.2c0.347,0.2,0.628-0.012,0.628-0.475
						c0-0.463-0.281-1-0.628-1.2C151.512,109.897,151.231,110.11,151.231,110.572z"/>
				</g>
				<path style="fill:#37A0F5;" d="M164.477,109.078l-9.656,5.575c-0.567,0.327-1.031-0.023-1.031-0.779v-3.914
					c0-0.756,0.464-1.641,1.031-1.969l9.656-5.575c0.567-0.327,1.03,0.023,1.03,0.779v3.914
					C165.507,107.865,165.044,108.751,164.477,109.078z"/>
				<path style="fill:#37A0F5;" d="M155.841,115.687l-1.678-0.973c0,0,0.697-1.054,0.74-1.054c0.044,0,1.373,0.307,1.373,0.307
					L155.841,115.687z"/>
				<polygon style="fill:#002F68;" points="166.796,103.309 165.195,102.393 164.558,103.013 165.288,104.097 				"/>
				<path style="fill:#002F68;" d="M165.983,110.139c-0.7,0.245-3.076,1.115-4.818,2.198c-1.184,0.736-4.636,3.308-4.636,3.308
					c-0.567,0.327-1.03-0.023-1.03-0.779v-3.914c0-0.818,0.388-1.299,0.758-1.763c0.724-0.908,2.26-2.539,4.75-3.949
					c2.104-1.192,4.838-1.855,5.575-1.955c0.368-0.05,0.635,0.333,0.635,0.902v3.914c0,0.661-0.225,1.423-0.823,1.821
					C166.318,109.971,166.112,110.093,165.983,110.139z"/>
				<g>
					<path style="fill:#002F68;" d="M165.507,107.109v-3.368c0.353-0.082,0.641-0.134,0.829-0.148
						c0.342-0.027,0.586,0.307,0.586,0.832v3.615c0,0.611-0.207,1.314-0.76,1.682c-0.068,0.045-0.338,0.18-0.534,0.258
						c-0.709,0.281-2.841,1.029-4.45,2.03c-1.093,0.68-3.392,2.367-4.549,3.23c-0.484,0.361-0.906,0.013-0.906-0.685v-0.423
						l8.753-5.053C165.044,108.751,165.507,107.865,165.507,107.109z"/>
					<path style="fill:#002F68;" d="M156.424,109.381c0.669-0.838,2.309-2.623,4.608-3.925c1.485-0.841,3.33-1.447,4.475-1.714
						v3.368c0,0.756-0.464,1.642-1.03,1.969l-8.753,5.053v-3.123C155.724,110.253,156.083,109.809,156.424,109.381z"/>
				</g>
				<g>
					<path style="fill:#002F68;" d="M162.842,105.7c0-0.216-0.027-0.408-0.074-0.575c0.734-0.298,1.301,0.208,1.301,1.22
						c0,1.099-0.668,2.375-1.492,2.85c-0.662,0.382-1.223,0.13-1.418-0.553c0.063-0.026,0.126-0.055,0.191-0.092
						C162.174,108.075,162.842,106.798,162.842,105.7z"/>
					<path style="fill:#41A0E2;" d="M162.577,105.217c0.065-0.037,0.128-0.067,0.191-0.092c0.048,0.167,0.074,0.359,0.074,0.575
						c0,1.099-0.668,2.375-1.492,2.851c-0.065,0.037-0.128,0.067-0.191,0.092c-0.048-0.167-0.074-0.359-0.074-0.575
						C161.085,106.969,161.753,105.693,162.577,105.217z"/>
				</g>
				<g>
					<path style="fill:#002F68;" d="M158.317,108.335c0-0.216-0.027-0.408-0.074-0.575c0.734-0.298,1.301,0.208,1.301,1.22
						c0,1.098-0.668,2.375-1.492,2.85c-0.662,0.382-1.223,0.13-1.418-0.553c0.063-0.026,0.126-0.055,0.191-0.092
						C157.649,110.71,158.317,109.434,158.317,108.335z"/>
					<path style="fill:#41A0E2;" d="M158.052,107.852c0.065-0.037,0.128-0.067,0.191-0.092c0.048,0.167,0.074,0.359,0.074,0.575
						c0,1.099-0.668,2.375-1.492,2.85c-0.065,0.037-0.128,0.067-0.191,0.092c-0.048-0.167-0.074-0.359-0.074-0.575
						C156.561,109.604,157.228,108.328,158.052,107.852z"/>
				</g>
				<polygon style="fill:#002F68;" points="157.428,106.138 160.985,104.079 160.533,103.819 156.977,105.877 				"/>
			</g>
		</g>
		<path style="fill:#FFC5B3;" d="M160.708,104.613c-0.795,0.552-3.761,1.233-4.59,7.767c-0.734,5.789,0.541,7.297,1.717,7.787
			c0.649,0.271,2.961,0.262,2.961,0.262l-0.089,4.89c0,0,2.867,1.134,5.617,0c2.75-1.134,2.75-1.134,2.75-1.134
			s-1.074-1.851-0.895-5.057c0.223-3.976,1.631-9.637,0.635-11.742C167.015,103.583,162.865,103.116,160.708,104.613z"/>
		<path style="fill:#FFB41F;" d="M170.947,151.755c-1.311,1.549-6.422,2.876-8.474,3.121c-3.089,0.369-6.453-1.016-7.901-3.294
			c1.881-5.884,0.252-11.674,0.252-11.674s-1.85-7.037,0.121-10.996c1.972-3.959,3.878-4.216,5.765-4.856
			c1.999-0.677,9.07-0.502,9.07-0.502s4.187,4.492,2.839,10.424C170.624,142.776,170.35,146.467,170.947,151.755z"/>
		<path style="fill:#FF9522;" d="M168.044,124.611c0,0-2.128,2.628-4.939,1.881c-2.81-0.746-4.367-1.736-4.367-1.736
			s0.467-1.036,2.26-1.222c2.833-0.294,6.504-1.327,6.504-1.327L168.044,124.611z"/>
		<path style="fill:#002F68;" d="M155.909,110.136c0.21,2.244,2.051,2.912,3.691,4.626c1.641,1.715,2.519,3.354,6.092,5.904
			c1.307,0.933,0.979,8.171,3.476,13.312c2.661,5.479,1.112,6.479,1.112,6.479s7.584-2.447,4.491-10.913
			c-1.13-3.092-5.457-5.617-5.603-8.877c-0.067-1.499,1.935-3.005,2.578-5.845c2.023-8.924-2.116-11.464-6.031-12.291
			C158.716,101.053,155.478,105.531,155.909,110.136z"/>
		<path style="fill:#FFC5B3;" d="M157.836,113.348c0,0,1.717-2.941,2.455,0c0.686,2.733-1.696,3.652-1.696,3.652L157.836,113.348z"
			/>
		<path style="fill:#FFB41F;" d="M169.836,118.94c0,0,0.102,1.869-0.289,2.288c-0.527,0.566-2.503,1.205-3.224,0.924
			c-0.62-0.242-1.532-1.496-1.613-2.119C167.258,119.823,169.836,118.94,169.836,118.94z"/>
		<path style="fill:#FFC5B3;" d="M150.045,132.178c0,0-3.562,3.271-6.694,3.876c-1.711-1.061-6.354-4.451-7.632-6.109
			c-1.032-1.339-2.01-3.001-2.843-4.558c-1.378,0.573-2.369,1.588-3.085,2.825c0.931,1.057,2.837,5.405,6.005,8.951
			c1.132,1.267,3.014,3.945,6.395,4.935c1.158,0.339,4.579,0.143,6.41-0.488c1.249-0.43,6.4-2.794,6.4-2.794L150.045,132.178z"/>
		<path style="fill:#FF9522;" d="M159.404,126.387c1.356,0.377,3.303,1.893,2.587,4.997c-1.096,4.752-3.746,5.812-5.808,7.333
			c-0.672,0.495-2.84,1.444-2.84,1.444s-2.144-1.913-3.123-3.784c-0.979-1.871-1.619-3.421-1.619-3.421
			S153.645,124.785,159.404,126.387z"/>
		<path style="fill:#FFB41F;" d="M149.301,131.945l-1.181,1.493c0,0,0.185,1.752,1.886,3.908c1.701,2.156,2.814,3.027,2.814,3.027
			l1.948-0.808c0,0-2.406-1.752-3.789-4.007C149.596,133.302,149.301,131.945,149.301,131.945z"/>
		<g>
			<g>
				<polygon style="fill:#61DCFF;" points="154.424,110.592 154.991,110.927 154.991,114.772 154.424,114.445 				"/>
				<polygon style="fill:#2DC6EA;" points="154.991,110.927 155.191,110.822 155.191,114.65 154.991,114.772 				"/>
				<polygon style="fill:#FFFFFF;" points="155.191,110.822 154.991,110.927 154.424,110.592 154.61,110.493 				"/>
			</g>
			<g>
				<path style="fill:#0E58C4;" d="M154.707,111.009c0.283,0.269,0.955,0.878,1.231,1.105c1.564,1.283,4.187,2.124,7.159,2.124
					c2.973,0,5.596-0.842,7.16-2.124c0.477-0.392,0.856-0.824,1.116-1.286c0.232-0.414,0.744-1.59,0.771-2.043l0.158,2.225
					l-0.535,1.105c0.004,0.062,0.008,0.124,0.008,0.187c0,2.697-3.885,4.884-8.678,4.884c-3.496,0-6.507-1.164-7.882-2.841
					l-0.633-3.294L154.707,111.009z"/>
				<path style="fill:#0745A8;" d="M154.584,111.051c0.21,0.257,0.972,0.942,1.254,1.172c1.592,1.305,4.26,2.162,7.285,2.162
					c3.025,0,5.694-0.857,7.286-2.162c0.486-0.398,0.871-0.838,1.136-1.309c0.236-0.421,0.618-1.341,0.646-1.802
					c0,0,0.303,1.479-0.059,3.569c-1.12,2.506-4.131,4.703-9.009,4.703c-3.061,0-5.756-0.877-7.34-2.208
					c-0.257-0.216-1.004-0.882-1.199-1.121V111.051z"/>
			</g>
			<g>
				<path style="fill:#0E58C4;" d="M161.92,101.783c1.053-0.724,2.474-0.721,4.04,0.183c2.438,1.407,5.114,5.189,5.58,9.128
					c-0.543,1.544-2.474,2.147-2.845,1.993c-0.479-3.893-2.698-7.602-5.533-9.32c-0.043-0.026-0.085-0.054-0.128-0.078
					c-0.772-0.446-1.509-0.67-2.184-0.699c-0.311-0.013-0.597-0.013-0.883,0.031c-0.285,0.044-0.564,0.115-0.564,0.115
					L161.92,101.783z"/>
			</g>
			<path style="fill:#0745A8;" d="M161.853,101.694c1.282-0.659,2.608-0.799,4.173,0.104c2.438,1.407,5.114,5.189,5.58,9.128
				c-0.391,1.612-2.251,2.183-2.66,2.364c-0.535-4.199-2.883-7.973-5.718-9.691c-0.043-0.026-0.085-0.054-0.128-0.078
				c-0.772-0.446-1.509-0.671-2.185-0.699c-0.55-0.023-1.06,0.084-1.513,0.313l-0.001-0.001L161.853,101.694z"/>
		</g>
		<path style="fill:#FFC5B3;" d="M133.308,126.179c0,0-0.273-3.192,0-4.468c0.274-1.276-0.125-1.702-0.524-1.13
			c-0.399,0.572-0.399,2.943-0.797,2.674c-0.399-0.268-1.674-4.049-3.189-4.869c-1.515-0.821-1.807,0.257-2.631,2.195
			c-0.984,2.313,2.052,5.943,3.625,7.633C131.224,129.753,133.308,126.179,133.308,126.179z"/>
	</g>
	<polygon style="opacity:0.5;fill:#2E57AA;" points="135.097,98.919 135.097,104.878 144.222,99.61 144.222,93.651 	"/>
</g>
<g>
	<g>
		<polygon style="fill:#2E57AA;" points="282.937,23.811 403.47,93.4 403.47,188.681 282.937,119.091 		"/>
		<polygon style="fill:#002F68;" points="406.233,91.805 403.47,93.4 403.47,188.681 406.233,187.085 		"/>
		<g>
			<polygon style="fill:#61DCFF;" points="400.999,95.148 400.999,151.684 285.164,84.807 285.164,28.27 			"/>
			<polygon style="fill:#00B3FC;" points="400.999,184.09 285.164,117.213 285.164,84.807 400.999,151.684 			"/>
		</g>
		<polygon style="fill:#3470D7;" points="329.519,110.415 358.057,126.892 367.179,164.564 309.114,131.04 		"/>
		<path style="fill:#FFFFFF;" d="M294.955,51.74c0.042-2.539,1.61-3.695,3.543-2.579c0.448,0.258,0.874,0.62,1.268,1.049
			c0.807-1.187,2.203-1.476,3.793-0.558c1.855,1.071,3.448,3.481,4.147,6.015c0.626-0.377,1.446-0.355,2.347,0.165
			c1.313,0.758,2.457,2.373,3.07,4.141c0.389-0.046,0.831,0.054,1.301,0.325c1.276,0.737,2.353,2.49,2.7,4.241L294.955,51.74z"/>
		<path style="fill:#FFFFFF;" d="M393.732,108.768c-0.05-3.099-1.929-6.653-4.244-7.989c-0.536-0.309-1.047-0.466-1.519-0.498
			c-0.967-2.538-2.638-4.815-4.543-5.914c-2.222-1.283-4.13-0.599-4.967,1.47c-0.749-1.317-1.732-2.425-2.811-3.048
			c-1.573-0.908-2.943-0.556-3.678,0.714c-0.466-0.594-0.996-1.085-1.558-1.41c-1.528-0.882-2.818-0.272-3.234,1.346
			L393.732,108.768z"/>
		<path style="fill:#FFFFFF;" d="M318.012,70.374c0.182-1.531,1.23-2.185,2.508-1.447c0.594,0.343,1.132,0.936,1.565,1.64
			c0.519-1.016,1.552-1.318,2.744-0.629c1.399,0.808,2.581,2.726,2.966,4.646c0.345-0.107,0.759-0.048,1.205,0.21
			c0.945,0.546,1.742,1.812,2.046,3.107L318.012,70.374z"/>
		<path style="fill:#FFFFFF;" d="M359.246,101.793c0.166-1.396,1.122-1.993,2.288-1.32c0.541,0.313,1.033,0.854,1.428,1.495
			c0.473-0.927,1.416-1.202,2.503-0.574c1.276,0.737,2.354,2.486,2.706,4.237c0.315-0.097,0.692-0.043,1.099,0.191
			c0.862,0.498,1.589,1.652,1.866,2.834L359.246,101.793z"/>
		<path style="fill:#FFFFFF;" d="M289.894,63.905c0.166-1.396,1.122-1.993,2.288-1.32c0.541,0.313,1.033,0.854,1.428,1.495
			c0.473-0.927,1.416-1.202,2.503-0.574c1.276,0.737,2.354,2.486,2.706,4.237c0.315-0.097,0.692-0.043,1.099,0.191
			c0.862,0.498,1.589,1.652,1.866,2.834L289.894,63.905z"/>
		<path style="fill:#FFFFFF;" d="M351.394,91.574c0.166-1.396,1.122-1.993,2.288-1.32c0.541,0.313,1.033,0.854,1.428,1.495
			c0.473-0.927,1.416-1.202,2.503-0.574c1.276,0.737,2.354,2.486,2.706,4.237c0.315-0.097,0.692-0.044,1.099,0.191
			c0.862,0.498,1.589,1.652,1.866,2.834L351.394,91.574z"/>
		<path style="fill:#3470D7;" d="M367.632,117.959c0.399-1.635,1.812-0.404,2.974,0.292c-0.699-2.198-0.19-4.432,1.492-3.165
			c0.019-0.996,0.32-1.962,1.121-1.724c0.165,0.049,0.318,0.148,0.456,0.278c-0.193-0.866-0.116-1.7,0.344-2.167
			c1.075-1.093,2.794,0.71,3.341,2.817c1.336-0.199,3.126,0.307,3.921,2.722c2.221-0.396,4.413,4.566,3.384,6.188
			c1.423,1.088,2.187,3.981,1.031,4.444c2.347,3.235,2.238,7.626-0.331,7.81c0.271,3.074-1.99,4.324-4.025,1.227
			c-0.251,0.139-0.536,0.212-0.84,0.223c-0.271,1.593-0.567,3.633-0.607,5.174c-0.077,2.927,0,6.514,0,9.918
			c0,2.888,0.374,6.852,0.488,7.989l-4.773-2.755c0.268-0.725,1.022-2.911,1.211-5.054c0.231-2.619,0.307-9.748-0.538-11.568
			c-0.845-1.82-3.074-5.343-3.843-7.897c-0.305-1.013-0.5-1.967-0.625-2.753c-1.873-1.263-3.758-4.539-2.525-6.753
			C368.317,121.636,367.265,119.46,367.632,117.959z M373.435,133.287c1.153,2.245,3.535,5.875,3.535,5.875s0.031-2.557,0.17-4.836
			c-0.075-0.173-0.145-0.352-0.206-0.542c-0.842,0.097-1.711-0.694-2.548-2.001c-0.272-0.425-0.555-0.89-0.784-1.357
			c-0.306,0.097-0.659,0.053-1.028-0.079C372.681,131.218,372.919,132.282,373.435,133.287z"/>
		<path style="fill:#3470D7;" d="M321.586,86.939c-0.399-2.096-1.812-2.496-2.974-3.143c0.699-1.39,0.19-4.213-1.492-4.888
			c-0.019-1.019-0.32-2.331-1.121-3.018c-0.165-0.141-0.318-0.219-0.456-0.249c0.193-0.644,0.116-1.566-0.344-2.564
			c-1.075-2.334-2.794-2.516-3.341-1.041c-1.336-1.741-3.126-3.303-3.921-1.805c-2.221-2.961-4.413-0.53-3.384,2.281
			c-1.423-0.554-2.187,1.456-1.031,3.254c-2.347,0.525-2.238,5.042,0.331,8.193c-0.271,2.761,1.99,6.622,4.025,5.875
			c0.251,0.428,0.536,0.831,0.84,1.193c0.271,1.906,0.567,4.288,0.607,5.875c0.077,3.016,0,6.514,0,9.918
			c0,2.888-0.374,6.42-0.488,7.426l4.773,2.755c-0.268-1.035-1.022-4.092-1.211-6.452c-0.231-2.885-0.307-10.103,0.538-10.947
			c0.845-0.844,3.074-1.793,3.843-3.46c0.305-0.661,0.5-1.39,0.625-2.031c1.873,0.9,3.758-0.2,2.525-3.838
			C320.901,89.823,321.953,88.862,321.586,86.939z M315.783,95.565c-1.153,0.914-3.535,1.792-3.535,1.792s-0.031-2.593-0.17-5.032
			c0.075-0.086,0.145-0.184,0.206-0.304c0.842,1.069,1.711,1.282,2.548,0.941c0.272-0.111,0.555-0.249,0.784-0.452
			c0.306,0.45,0.659,0.814,1.028,1.108C316.537,94.367,316.299,95.156,315.783,95.565z"/>
		<path style="fill:#3470D7;" d="M370.01,150.838c-0.1-0.506,0.046-1.043,0.263-1.263c0.471-0.48,1.151-0.15,1.793,0.45
			c0.073-0.676,0.265-1.27,0.831-1.192c0.395,0.055,0.824,0.472,1.162,0.997c-0.088-0.591,0.048-1.144,0.274-1.446
			c0.418-0.559,1.181-0.44,1.883,0.122c0.685,0.547,1.229,1.472,1.518,2.458c0.206,0.146,0.419,0.265,0.718,0.464
			c0.462,0.308,0.867,0.557,1.27,1.146c0.558,0.816,0.805,1.736,0.716,2.499c0.836,0.474,1.703,1.263,2.08,2.601
			c0.427,1.518-0.201,2.006-0.995,2.102c0.222,0.553,0.291,1.168,0.147,1.653c-0.342,1.151-1.401,0.85-2.34,0.163
			c-0.693,0.858-2.19,0.066-3.165-1.302c-0.753,0.363-2.541-0.59-3.168-2.343c-0.571,0.579-1.543,0.42-2.447-0.68
			c-0.974-1.185-1.001-2.457-0.626-3.331c-0.367-0.403-0.699-1.067-0.834-1.659C368.825,151.128,369.348,150.582,370.01,150.838z"/>
		<path style="fill:#3470D7;" d="M305.924,109.587c-0.1-0.506,0.046-1.043,0.262-1.263c0.472-0.48,1.151-0.15,1.793,0.45
			c0.073-0.676,0.265-1.27,0.831-1.192c0.395,0.055,0.824,0.472,1.162,0.997c-0.088-0.591,0.048-1.144,0.274-1.446
			c0.418-0.559,1.181-0.44,1.883,0.122c0.684,0.547,1.229,1.472,1.518,2.458c0.206,0.146,0.419,0.264,0.718,0.464
			c0.462,0.308,0.867,0.557,1.27,1.146c0.558,0.816,0.805,1.736,0.716,2.499c0.836,0.474,1.704,1.263,2.08,2.601
			c0.427,1.518-0.201,2.006-0.995,2.102c0.222,0.553,0.291,1.168,0.147,1.653c-0.342,1.151-1.401,0.85-2.34,0.163
			c-0.693,0.858-2.19,0.066-3.165-1.302c-0.753,0.363-2.541-0.59-3.168-2.343c-0.571,0.579-1.543,0.42-2.447-0.68
			c-0.974-1.185-1.001-2.457-0.626-3.331c-0.367-0.402-0.699-1.067-0.834-1.659C304.739,109.878,305.262,109.332,305.924,109.587z"
			/>
		<path style="fill:#3470D7;" d="M294.411,108.868c-0.063-0.318,0.029-0.655,0.165-0.793c0.296-0.301,0.723-0.094,1.126,0.283
			c0.046-0.424,0.166-0.798,0.522-0.749c0.248,0.034,0.518,0.297,0.73,0.626c-0.055-0.371,0.03-0.718,0.172-0.908
			c0.262-0.351,0.741-0.276,1.182,0.076c0.43,0.344,0.772,0.925,0.953,1.544c0.129,0.092,0.263,0.166,0.451,0.291
			c0.29,0.193,0.545,0.35,0.798,0.72c0.35,0.512,0.506,1.09,0.449,1.569c0.525,0.298,1.07,0.793,1.307,1.634
			c0.268,0.954-0.126,1.26-0.625,1.32c0.14,0.347,0.183,0.734,0.092,1.038c-0.215,0.723-0.88,0.534-1.47,0.102
			c-0.435,0.539-1.375,0.042-1.988-0.818c-0.473,0.228-1.596-0.371-1.99-1.472c-0.358,0.364-0.969,0.264-1.537-0.427
			c-0.612-0.744-0.629-1.543-0.393-2.092c-0.23-0.253-0.439-0.67-0.524-1.042C293.666,109.05,293.995,108.708,294.411,108.868z"/>
		<path style="fill:#3470D7;" d="M365.359,139.26c-0.063-0.318,0.029-0.655,0.165-0.793c0.296-0.301,0.723-0.094,1.126,0.283
			c0.046-0.424,0.166-0.798,0.522-0.749c0.248,0.034,0.518,0.297,0.73,0.626c-0.055-0.371,0.03-0.718,0.172-0.908
			c0.262-0.351,0.741-0.276,1.182,0.077c0.43,0.344,0.772,0.925,0.953,1.544c0.129,0.092,0.263,0.166,0.451,0.291
			c0.29,0.193,0.545,0.35,0.798,0.72c0.35,0.512,0.506,1.09,0.449,1.57c0.525,0.298,1.07,0.793,1.307,1.634
			c0.268,0.954-0.126,1.26-0.625,1.32c0.14,0.347,0.183,0.734,0.092,1.038c-0.215,0.723-0.88,0.534-1.47,0.102
			c-0.435,0.539-1.375,0.042-1.988-0.818c-0.473,0.228-1.596-0.371-1.99-1.472c-0.359,0.364-0.969,0.264-1.537-0.427
			c-0.612-0.744-0.629-1.544-0.393-2.092c-0.23-0.253-0.439-0.67-0.524-1.042C364.615,139.442,364.943,139.099,365.359,139.26z"/>
		<path style="fill:#3470D7;" d="M290.343,96.058c-0.08-0.406,0.037-0.836,0.211-1.013c0.378-0.384,0.923-0.12,1.438,0.361
			c0.058-0.542,0.212-1.019,0.666-0.956c0.316,0.044,0.661,0.379,0.931,0.799c-0.071-0.474,0.039-0.917,0.22-1.159
			c0.335-0.449,0.947-0.353,1.509,0.098c0.549,0.439,0.985,1.18,1.217,1.971c0.165,0.117,0.336,0.212,0.576,0.372
			c0.371,0.247,0.695,0.447,1.018,0.919c0.447,0.654,0.646,1.392,0.574,2.003c0.67,0.38,1.366,1.012,1.668,2.086
			c0.342,1.217-0.161,1.608-0.797,1.685c0.178,0.443,0.233,0.936,0.118,1.325c-0.274,0.923-1.124,0.681-1.876,0.13
			c-0.555,0.688-1.756,0.053-2.537-1.044c-0.604,0.291-2.038-0.473-2.54-1.878c-0.458,0.464-1.237,0.337-1.962-0.545
			c-0.781-0.95-0.803-1.97-0.502-2.671c-0.294-0.323-0.56-0.856-0.669-1.33C289.393,96.29,289.812,95.853,290.343,96.058z"/>
		<path style="fill:#3470D7;" d="M385.716,151.685c-0.08-0.406,0.037-0.836,0.211-1.013c0.378-0.385,0.922-0.12,1.438,0.361
			c0.058-0.542,0.212-1.019,0.666-0.956c0.317,0.044,0.661,0.379,0.931,0.799c-0.071-0.474,0.039-0.917,0.22-1.159
			c0.335-0.449,0.947-0.352,1.509,0.098c0.549,0.439,0.986,1.18,1.217,1.971c0.165,0.117,0.336,0.212,0.576,0.372
			c0.371,0.247,0.695,0.447,1.018,0.919c0.447,0.654,0.645,1.392,0.574,2.003c0.67,0.38,1.366,1.012,1.668,2.086
			c0.342,1.217-0.161,1.608-0.797,1.685c0.178,0.443,0.233,0.936,0.118,1.325c-0.274,0.923-1.123,0.681-1.876,0.13
			c-0.555,0.688-1.756,0.053-2.537-1.044c-0.604,0.291-2.038-0.473-2.54-1.878c-0.458,0.464-1.237,0.337-1.962-0.545
			c-0.781-0.95-0.803-1.97-0.502-2.671c-0.294-0.323-0.56-0.856-0.669-1.33C384.766,151.917,385.185,151.479,385.716,151.685z"/>
		<path style="fill:#FFFFFF;" d="M342.007,124.038l2.147-5.265l0.885,0.518l-1.006,5.864
			C343.354,124.79,342.678,124.418,342.007,124.038z"/>
		<path style="fill:#FFFFFF;" d="M339.343,130.571l2.241-5.494c0.746,0.42,1.497,0.829,2.253,1.231l-1.066,6.214
			C341.636,131.858,340.493,131.209,339.343,130.571z"/>
		<path style="fill:#FFFFFF;" d="M336.3,137.912l2.619-6.302c1.226,0.681,2.442,1.378,3.65,2.089l-1.461,7.136
			C339.529,139.822,337.926,138.848,336.3,137.912z"/>
		<path style="fill:#FFFFFF;" d="M340.777,142.456l-1.256,6.139l-6.178-3.567l2.361-5.681
			C337.42,140.342,339.108,141.382,340.777,142.456z"/>
	</g>
	<polygon style="fill:#3970C9;" points="406.233,91.805 403.47,93.4 282.937,23.811 285.608,22.162 	"/>
</g>
<g>
	<g>
		<path style="fill:#002F68;" d="M291.217,137.926c1.758,0,3.183,0.865,3.183,1.931c0,1.066-1.425,1.931-3.183,1.931
			c-1.758,0-3.183-0.865-3.183-1.931C288.034,138.791,289.459,137.926,291.217,137.926z"/>
		<path style="fill:#37A0F5;" d="M291.303,137.926c1.311,0,2.374,0.576,2.374,1.287c0,0.711-1.063,1.287-2.374,1.287
			c-1.311,0-2.374-0.576-2.374-1.287C288.93,138.502,289.993,137.926,291.303,137.926z"/>
		<path style="fill:#002F68;" d="M291.217,141.208c0,0-0.553,1.722-0.649,3.778c-0.096,2.056,0.144,5.452-1.195,7.03
			c-1.339,1.578-2.465-0.43-2.548-2.63c-0.083-2.2,1.208-9.529,1.208-9.529L291.217,141.208z"/>
	</g>
	<path style="fill:#FFC5B3;" d="M290.859,144.988c0,0-0.359-0.538-1.037-0.336c-0.361,0.108-1.236,0.647-1.515,0.601
		c-0.279-0.046-1.032-0.601-1.032-0.601l0.274-1.843c0,0-1.755,0.724-2.133,2.279c-0.378,1.555-1.113,1.944-2.699,2.507
		c-1.586,0.563-3.322,1.688-3.322,1.688l2.472,4.018c0,0,4.049-3.611,4.447-4.018c0.398-0.407,1.833-1.802,2.073-2.082
		c0.239-0.279,1.038-1.109,1.296-1.304C290.121,145.566,290.859,144.988,290.859,144.988z"/>
	<path style="fill:#FFC5B3;" d="M290.547,207.084c0,0-4.864,9.196-5.961,13.067c-0.588,2.077-1.956,9.946-1.956,9.946
		s0.899-1.225,2.319-1.592c0.852-0.22,2.159-0.406,3.039,0.716c1.383,1.763,1.576,3.097-0.555,5.073
		c-0.949,0.88-2.599,2.322-3.993,3.55c-1.736,1.531-3.679,3.008-5.357,2.898c-1.81-0.118-2.986-0.996-2.893-3.113
		c0.051-1.154,0.966-3.135,1.034-3.788c0.199-1.926,0.639-13.71,1.391-21.004c0.381-3.696,1.374-5.781,1.374-5.781L290.547,207.084z
		"/>
	<path style="fill:#FFC5B3;" d="M270.039,195.536c0,0-4.864,9.196-5.961,13.067c-0.588,2.077-2.737,10.917-2.737,10.917
		s2.764-2.258,5.48-1.308c2.468,0.864,1.221,2.657-0.91,4.633c-0.949,0.88-2.205,1.753-3.599,2.981
		c-1.736,1.53-2.174,1.965-3.156,2.273c-1.73,0.543-3.841,0.303-3.748-1.814c0.051-1.154,0.24-3.339,0.308-3.992
		c0.199-1.926,0.639-13.71,1.391-21.004c0.382-3.696,1.374-5.781,1.374-5.781L270.039,195.536z"/>
	<path style="fill:#9E6EEA;" d="M278.798,185.002c0,0,7.264,10.187,9.462,14.498c0.706,1.385,2.57,4.487,2.599,6.02
		c0.032,1.676-0.556,3.655-0.556,3.655s-4.382,3.615-7.968,2.977c-4.19-0.745-5.546-3.097-5.546-3.097s-5.899-7.196-8.415-9.609
		c-2.516-2.413-6.652-7.403-8.075-11.018c-1.076-2.735-1.914-9.604,0-11.758C262.213,174.516,278.798,185.002,278.798,185.002z"/>
	<path style="fill:#9E6EEA;" d="M269.655,180.121l-0.461,14.701c0,0-0.486,5.313-0.805,7.259c-1.701,1.701-3.602,2.531-5.353,2.264
		c-3.879-0.592-6.67-3.175-6.67-3.175s-4.031-15.294-3.231-18.68c0.8-3.387,3.501-7.191,3.501-7.191L269.655,180.121z"/>
	<path style="fill:#FFB41F;" d="M277.679,147.14c0,0,3.676,1.043,4.868,3.324c1.367,2.616,2.796,6.988,1.496,11.437
		c-1.3,4.449-4.427,11.781-4.965,13.153c-0.537,1.372,1.82,3.847,1.259,4.817c-0.56,0.97-1.842,2.275-1.113,2.682
		c0.729,0.407,1.113,2.633,1.113,2.633s-9.533,4.261-15.553,1.901c-6.02-2.361-10.952-7.285-10.952-7.285s0.659-2.942,1.895-4.541
		c1.236-1.598,0.212-4.413,1.272-5.243c1.06-0.83,3.178-1.231,3.002-2.531c-0.177-1.301-1.06-13.92,1.942-17.94
		c3.002-4.02,8.451-4.461,8.451-4.461L277.679,147.14z"/>
	<g>
		<path style="fill:#0E58C4;" d="M272.776,127.462c-3.436,0.547-5.954,2.324-5.954,4.433c0,0.053,0.004,0.106,0.007,0.159
			c0.026,0.428,0.154,0.84,0.373,1.231c0.285-0.507,0.721-0.976,1.279-1.39c1.061-0.788,2.561-1.376,4.295-1.652V127.462z"/>
		<path style="fill:#37A0F5;" d="M272.838,127.557c-3.376,0.538-5.851,2.284-5.851,4.356c0,0.053,0.004,0.104,0.007,0.156
			c0.025,0.42,0.151,0.826,0.366,1.21c0.28-0.498,0.709-0.959,1.257-1.366c1.042-0.774,2.517-1.352,4.221-1.623V127.557z"/>
		<g>
			<path style="fill:#002F68;" d="M278.241,129.018l8.951,5.168c0.525,0.303,0.955-0.022,0.955-0.722v-3.629
				c0-0.7-0.43-1.522-0.955-1.825l-8.951-5.168c-0.525-0.303-0.955,0.022-0.955,0.722v3.629
				C277.286,127.894,277.716,128.715,278.241,129.018z"/>
			<path style="fill:#002F68;" d="M286.822,134.804l1.021-0.587l-0.306-0.728c0,0-1.222,0.514-1.222,0.548
				C286.314,134.072,286.822,134.804,286.822,134.804z"/>
			<g>
				<polygon style="fill:#002F68;" points="276.625,123.363 277.609,122.8 278.033,123.22 277.117,124.054 				"/>
			</g>
			<path style="fill:#61DCFF;" d="M277.235,129.595l8.952,5.168c0.525,0.303,0.955-0.022,0.955-0.722v-3.629
				c0-0.701-0.43-1.522-0.955-1.825l-8.952-5.168c-0.525-0.303-0.955,0.022-0.955,0.722v3.629
				C276.28,128.471,276.71,129.292,277.235,129.595z"/>
			<polygon style="fill:#61DCFF;" points="276.625,123.363 273.087,125.386 283.314,136.807 286.822,134.804 			"/>
			<g>
				<path style="fill:#41A0E2;" d="M286.209,134.519l-1.369,0.791c-0.26,0.15-0.472-0.011-0.472-0.357v-1.826
					c0-0.346,0.212-0.752,0.472-0.902l1.369-0.791c0.26-0.15,0.472,0.011,0.472,0.357v1.826
					C286.681,133.964,286.469,134.369,286.209,134.519z"/>
				<polygon style="fill:#41A0E2;" points="286.53,131.418 286.394,131.334 286.348,131.376 286.483,131.502 				"/>
				<polygon style="fill:#41A0E2;" points="284.405,135.254 284.557,135.347 284.615,135.254 284.427,135.174 				"/>
				<path style="fill:#FFFFFF;" d="M286.1,134.451l-1.37,0.791c-0.26,0.15-0.472-0.011-0.472-0.357v-1.826
					c0-0.346,0.212-0.752,0.472-0.902l1.37-0.791c0.259-0.15,0.472,0.011,0.472,0.357v1.826
					C286.572,133.895,286.36,134.301,286.1,134.451z"/>
				<path style="fill:#41A0E2;" d="M286.032,132.967c0,0.429-0.261,0.927-0.582,1.113c-0.322,0.186-0.582-0.011-0.582-0.44
					c0-0.429,0.261-0.927,0.582-1.113C285.772,132.342,286.032,132.539,286.032,132.967z"/>
			</g>
			<path style="fill:#002F68;" d="M273.753,131.582l8.951,5.168c0.525,0.303,0.955-0.022,0.955-0.722V132.4
				c0-0.7-0.43-1.522-0.955-1.825l-8.951-5.168c-0.525-0.303-0.955,0.022-0.955,0.722v3.629
				C272.798,130.458,273.228,131.279,273.753,131.582z"/>
			<path style="fill:#002F68;" d="M281.759,137.709l1.555-0.902c0,0-0.646-0.977-0.686-0.977c-0.041,0-1.273,0.284-1.273,0.284
				L281.759,137.709z"/>
			<polygon style="fill:#002F68;" points="271.604,126.235 273.087,125.386 273.678,125.96 273.001,126.965 			"/>
			<path style="fill:#37A0F5;" d="M272.358,132.566c0.649,0.227,2.852,1.033,4.467,2.037c1.097,0.682,4.298,3.066,4.298,3.066
				c0.525,0.303,0.955-0.022,0.955-0.722v-3.629c0-0.759-0.36-1.204-0.703-1.634c-0.671-0.841-2.095-2.353-4.403-3.66
				c-1.951-1.105-4.485-1.719-5.168-1.812c-0.341-0.046-0.588,0.308-0.588,0.836v3.629c0,0.613,0.208,1.319,0.763,1.688
				C272.047,132.41,272.237,132.524,272.358,132.566z"/>
			<g>
				<path style="fill:#002F68;" d="M272.798,129.757v-3.122c-0.327-0.076-0.595-0.124-0.769-0.138
					c-0.317-0.025-0.543,0.285-0.543,0.772v3.351c0,0.566,0.192,1.218,0.705,1.559c0.063,0.041,0.313,0.167,0.495,0.239
					c0.658,0.261,2.633,0.954,4.125,1.881c1.013,0.63,3.144,2.194,4.216,2.994c0.449,0.335,0.84,0.012,0.84-0.635v-0.392
					l-8.114-4.685C273.228,131.279,272.798,130.458,272.798,129.757z"/>
				<path style="fill:#002F68;" d="M281.218,131.863c-0.62-0.777-2.14-2.432-4.272-3.639c-1.377-0.78-3.087-1.341-4.148-1.589v3.122
					c0,0.7,0.43,1.522,0.955,1.825l8.114,4.685v-2.895C281.867,132.672,281.535,132.26,281.218,131.863z"/>
			</g>
			<g>
				<path style="fill:#002F68;" d="M275.269,128.451c0-0.2,0.025-0.378,0.069-0.533c-0.68-0.277-1.206,0.192-1.206,1.131
					c0,1.018,0.619,2.201,1.383,2.642c0.614,0.354,1.133,0.121,1.314-0.513c-0.058-0.024-0.117-0.051-0.177-0.085
					C275.888,130.652,275.269,129.469,275.269,128.451z"/>
				<path style="fill:#41A0E2;" d="M275.515,128.003c-0.06-0.035-0.119-0.062-0.177-0.085c-0.044,0.155-0.069,0.333-0.069,0.533
					c0,1.018,0.619,2.201,1.383,2.642c0.06,0.035,0.119,0.062,0.177,0.085c0.044-0.155,0.069-0.333,0.069-0.533
					C276.898,129.627,276.279,128.444,275.515,128.003z"/>
			</g>
			<g>
				<path style="fill:#002F68;" d="M279.463,130.894c0-0.2,0.025-0.378,0.069-0.533c-0.68-0.277-1.206,0.193-1.206,1.131
					c0,1.018,0.619,2.201,1.383,2.642c0.614,0.354,1.133,0.121,1.314-0.513c-0.058-0.024-0.117-0.051-0.177-0.085
					C280.082,133.095,279.463,131.912,279.463,130.894z"/>
				<path style="fill:#41A0E2;" d="M279.709,130.446c-0.06-0.035-0.119-0.062-0.177-0.085c-0.044,0.155-0.069,0.333-0.069,0.533
					c0,1.018,0.619,2.201,1.383,2.642c0.06,0.035,0.119,0.062,0.177,0.085c0.044-0.155,0.069-0.333,0.069-0.533
					C281.092,132.07,280.473,130.887,279.709,130.446z"/>
			</g>
			<polygon style="fill:#002F68;" points="280.287,128.857 276.991,126.949 277.409,126.707 280.706,128.615 			"/>
		</g>
	</g>
	<path style="fill:#FFC5B3;" d="M277.679,128.439c-1.948-1.352-5.696-0.93-7.321,2.504c-0.9,1.901,0.372,7.015,0.573,10.605
		c0.162,2.896-0.808,4.568-0.808,4.568s0,0,2.484,1.024c2.483,1.024,5.073,0,5.073,0l-0.08-4.416c0,0,2.674-0.397,3.142-0.826
		c1.127-1.033,1.723-4.105,1.201-8.067C281.165,127.933,278.397,128.937,277.679,128.439z"/>
	<path style="fill:#FFC5B3;" d="M290.789,143.036c0,0,0.16,0.195,0.364,0.501c0.222,0.332,0.1,0.551-0.062,0.626
		c-0.149,0.069-0.232,0.065-0.232,0.065s0.219,0.381,0.358,0.68c0.139,0.299-0.279,0.479-0.358,0.479
		c-0.08,0,0.289,0.279,0.294,0.598c0.005,0.319-0.615,0.234-0.615,0.234S290.42,143.835,290.789,143.036z"/>
	<g>
		<path style="fill:#002F68;" d="M302.281,143.966c1.758,0,3.183,0.865,3.183,1.931c0,1.066-1.425,1.931-3.183,1.931
			s-3.183-0.864-3.183-1.931C299.098,144.83,300.523,143.966,302.281,143.966z"/>
		<path style="fill:#37A0F5;" d="M302.367,143.966c1.311,0,2.374,0.576,2.374,1.287c0,0.711-1.063,1.287-2.374,1.287
			c-1.311,0-2.374-0.576-2.374-1.287C299.993,144.542,301.056,143.966,302.367,143.966z"/>
		<path style="fill:#002F68;" d="M302.281,147.247c0,0-0.553,1.722-0.648,3.778c-0.096,2.056,0.143,5.452-1.196,7.03
			c-1.339,1.578-2.465-0.43-2.548-2.63c-0.083-2.2,1.208-9.529,1.208-9.529L302.281,147.247z"/>
	</g>
	<path style="fill:#FFC5B3;" d="M280.897,149.287c2.106,0.201,6.208,8.274,8.117,12.275c1.448-1.312,4.207-3.692,7.37-5.793
		c0.864-0.574,0.248-4.508,2.032-5.62c0.07,1.092,1.09,1.088,1.667,1.039c1.248-0.106,1.567-0.372,1.639-1.227
		c0.326-0.102,0.722-0.071,1.07,0.323c0.397-0.068,1.157,0.523,0.997,1.134c0.836,0.574,0.621,2.076,0.103,2.793
		c-1.071,1.481-3.332,3.063-4.648,4.792c-1.229,1.615-7.402,9.859-11.708,11.188c-0.306-0.056-1.46-0.092-2.295-0.915
		c-2.826-2.783-6.984-9.896-7.175-14.148C277.917,151.807,279.436,149.148,280.897,149.287z"/>
	<path style="fill:#002F68;" d="M280.086,135.389c0.296-0.989,0.971-3.287,1.141-4.213c0.197-1.075,0.255-2.672-1.214-4.2
		c-1.469-1.528-6.563-2.02-8.405-0.953c-1.842,1.066-5.762,3.013-4.394,9.366c1.105,5.135,2.18,5.71,3.731,6.916
		c1.356,1.054,3.743,1.315,3.743,1.315s1.33-0.962,1.57-2.907c0.076-0.613,0-2.47,0-2.47s-1.358-2.686-0.306-3.643
		c1.12-1.019,2.265,0.601,2.527,1.257c0.918,2.296,0.467,6.623,0.467,6.623s1.362,0.878,2.713,0.54
		c0.744-0.186,0.089-3.067,0.089-3.067S280.308,139.232,280.086,135.389z"/>
	<g>
		<g>
			<polygon style="fill:#61DCFF;" points="283.072,132.986 282.547,133.297 282.547,136.86 283.072,136.558 			"/>
			<polygon style="fill:#41A0E2;" points="282.547,133.297 282.361,133.199 282.361,136.748 282.547,136.86 			"/>
			<polygon style="fill:#FFFFFF;" points="282.361,133.199 282.547,133.297 283.072,132.986 282.9,132.894 			"/>
		</g>
		<g>
			<path style="fill:#0E58C4;" d="M282.81,133.372c-0.263,0.249-0.885,0.814-1.142,1.024c-1.45,1.189-3.881,1.969-6.637,1.969
				c-2.756,0-5.187-0.78-6.637-1.969c-0.443-0.363-0.794-0.764-1.035-1.192c-0.216-0.384-0.348-1.072-0.373-1.492l-0.107,0.719
				l0.114,1.965h0.001c-0.004,0.058-0.008,0.115-0.008,0.174c0,2.501,3.602,4.528,8.045,4.528c3.241,0,6.032-1.079,7.306-2.633
				l0.587-3.053L282.81,133.372z"/>
			<path style="fill:#0745A8;" d="M282.924,133.411c-0.195,0.238-0.901,0.873-1.162,1.087c-1.475,1.21-3.949,2.004-6.754,2.004
				c-2.804,0-5.278-0.794-6.754-2.004c-0.45-0.369-0.808-0.777-1.053-1.213c-0.219-0.39-0.347-0.803-0.373-1.231v2.444h0.001
				c-0.004,0.059-0.008,0.117-0.008,0.177c0,2.545,3.665,4.607,8.186,4.607c2.837,0,5.336-0.813,6.804-2.047
				c0.238-0.2,0.93-0.818,1.111-1.039V133.411z"/>
		</g>
		<g>
			<path style="fill:#41A0E2;" d="M271.168,141.91l-0.135-0.08C271.077,141.858,271.123,141.884,271.168,141.91z"/>
			<path style="fill:#41A0E2;" d="M271.23,141.946L271.23,141.946c-0.021-0.012-0.041-0.024-0.061-0.036L271.23,141.946z"/>
			<path style="fill:#0E58C4;" d="M276.124,124.82c-0.976-0.671-2.293-0.669-3.745,0.169c-2.26,1.305-4.74,4.81-5.173,8.461
				c0.503,1.432,2.293,1.99,2.637,1.847c0.444-3.608,2.501-7.047,5.129-8.639c0.04-0.024,0.079-0.05,0.119-0.073
				c0.716-0.413,1.399-0.621,2.025-0.648c0.288-0.012,0.553-0.012,0.819,0.029c0.264,0.041,0.523,0.106,0.523,0.106L276.124,124.82z
				"/>
		</g>
		<path style="fill:#0745A8;" d="M276.186,124.738c-1.189-0.611-2.417-0.741-3.868,0.097c-2.26,1.305-4.74,4.81-5.173,8.461
			c0.363,1.495,2.087,2.024,2.466,2.192c0.496-3.893,2.672-7.391,5.3-8.984c0.04-0.024,0.079-0.05,0.119-0.073
			c0.716-0.413,1.399-0.622,2.025-0.648c0.51-0.022,0.983,0.078,1.403,0.29l0-0.001L276.186,124.738z"/>
	</g>
	<path style="fill:#8C5DD1;" d="M271.241,189.622c0.35,1.049,1.095,3.102,1.847,4.031c1.032,1.276-1.388,1.64-3.048,1.883
		c-1.66,0.243-4.531-1.753-5.488-3.466c-0.938-1.68-1.16-4.158-1.168-4.254C265.786,189.325,268.345,190.331,271.241,189.622z"/>
	<path style="fill:#8C5DD1;" d="M259.237,187.093c0.099,0.621,0.296,1.675,0.637,2.753c0.532,1.68-0.532,2.956-2.02,1.84
		c-1.488-1.117-2.977-3.03-3.402-4.625c-0.291-1.089-0.471-3.207-0.557-4.04C255.228,184.754,256.954,186.057,259.237,187.093z"/>
	<path style="fill:#FF9522;" d="M276.28,182.66c0,0-3.687,1.771-7.92,0.694c-4.233-1.077-7.018-3.086-7.018-3.086
		s5.549,0.422,8.313,1.003C272.419,181.852,276.28,182.66,276.28,182.66z"/>
	<path style="fill:#FF9522;" d="M274.956,179.092c0,0-7.424,0.501-11.572-1.559c-4.148-2.06-5.211-4.567-5.211-4.567
		s1.492,0.871,5.211,2.433C267.103,176.961,274.956,179.092,274.956,179.092z"/>
	<path style="fill:#FF9522;" d="M277.329,173.508c0,0-6.45,1.794-10.039,0.71c-3.589-1.084-5.948-2.158-5.948-2.158
		S273.095,171.969,277.329,173.508z"/>
</g>
<g>
	<g>
		<g>
			<g>
				<path style="fill:#9E6EEA;" d="M111.913,293.903v-25.19c0-5.837-3.582-8.545-7.959-6.017L82.09,275.318
					c-4.377,2.528-7.959,9.371-7.959,15.208v25.19L111.913,293.903z"/>
				<path style="fill:#9E6EEA;" d="M79.444,318.941l-5.313-3.224c0,0,1.996-6.876,2.657-6.651c0.66,0.224,9.295,3.364,9.295,3.364
					L79.444,318.941z"/>
				<polygon style="fill:#9E6EEA;" points="108.888,262.157 114.682,265.661 113.221,269.246 105.707,265.661 				"/>
				<path style="fill:#8C5DD1;" d="M117.226,297.127v-25.19c0-5.837-3.582-8.544-7.959-6.017l-21.864,12.623
					c-4.377,2.527-7.959,9.371-7.959,15.208v25.19L117.226,297.127z"/>
			</g>
			<g>
				<path style="fill:#9E6EEA;" d="M152.492,267.068l-32.429-18.923c-3.258-1.881-5.962,0.2-6.007,4.623l-0.24,23.046
					c-0.046,4.424,2.582,9.582,5.84,11.463l27.059,16.331v-1.45l5.778,3.336c3.258,1.881,5.924-0.134,5.924-4.478v-22.631
					C158.416,274.042,155.75,268.949,152.492,267.068z"/>
				<polygon style="fill:#9E6EEA;" points="111.11,250.695 116.337,247.79 119.343,251.038 113.123,255.15 				"/>
				<path style="fill:#B188FF;" d="M147.353,269.927l-32.429-18.923c-3.258-1.881-5.961,0.199-6.007,4.623l-0.24,23.046
					c-0.046,4.424,2.582,9.582,5.84,11.463l32.198,19.433v-1.584l0.638,0.369c3.258,1.881,5.924-0.134,5.924-4.478v-22.631
					C153.276,276.902,150.611,271.808,147.353,269.927z"/>
			</g>
			<g>
				<path style="fill:#9E6EEA;" d="M153.914,309.262l-39.637-22.884c-1.679-0.97-4.64-0.847-6.58,0.273l-31.96,18.452
					c-1.94,1.12-2.152,2.829-0.473,3.799l51.789,29.9C134.549,327.653,143.849,318.076,153.914,309.262z"/>
				<rect x="74.131" y="298.729" style="fill:#9E6EEA;" width="12.644" height="8.735"/>
				<path style="fill:#B188FF;" d="M150.104,308.454c1.271-1.61,2.554-3.191,3.859-4.74c-23.17-13.492-45.276-26.143-45.276-26.143
					l-32.951,19.105c-1.94,1.12-2.152,2.829-0.473,3.799l56.143,32.414C137.289,324.492,143.74,316.518,150.104,308.454z"/>
				<path style="fill:#C9B3FF;" d="M150.64,311.515c2.295-1.97,4.675-3.827,7.091-5.637l-48.595-28.056l-31.316,18.08
					c-1.9,1.097-2.108,2.772-0.463,3.722l53.732,31.022C137.267,323.926,143.733,317.444,150.64,311.515z"/>
				<g>
					<path style="fill:#9E6EEA;" d="M113.42,298.436c0,0.553-0.843,1.001-1.882,1.001c-1.039,0-1.882-0.448-1.882-1.001
						c0-0.553,0.842-1.001,1.882-1.001C112.577,297.435,113.42,297.883,113.42,298.436z"/>
					<path style="fill:#9E6EEA;" d="M109.422,300.439c0,0-1.607,0.231-4.684,1.956c-2.369,1.328-4.999,4.326-4.999,4.326
						s3.251-1.891,5.676-3.537C108.103,301.358,109.422,300.439,109.422,300.439z"/>
					<path style="fill:#9E6EEA;" d="M123.908,290.987c0,0-1.607,0.231-4.684,1.956c-2.369,1.328-4.999,4.326-4.999,4.326
						s3.251-1.891,5.676-3.537C122.589,291.907,123.908,290.987,123.908,290.987z"/>
					<path style="fill:#9E6EEA;" d="M99.739,290.987c0,0,1.607,0.231,4.684,1.956c2.369,1.328,4.999,4.326,4.999,4.326
						s-3.251-1.891-5.676-3.537C101.059,291.907,99.739,290.987,99.739,290.987z"/>
					<path style="fill:#9E6EEA;" d="M114.799,300.106c0,0,1.607,0.231,4.684,1.956c2.369,1.328,5,4.326,5,4.326
						s-3.251-1.891-5.676-3.537C116.118,301.026,114.799,300.106,114.799,300.106z"/>
				</g>
			</g>
			<g>
				<path style="fill:#9E6EEA;" d="M155.523,318.874v-25.19c0-5.837-3.581-8.545-7.959-6.017L125.7,300.29
					c-4.378,2.528-7.959,9.371-7.959,15.208v25.19L155.523,318.874z"/>
				<path style="fill:#9E6EEA;" d="M123.054,343.912l-5.313-3.224c0,0,1.996-6.876,2.656-6.651c0.661,0.224,9.295,3.364,9.295,3.364
					L123.054,343.912z"/>
				<polygon style="fill:#9E6EEA;" points="152.498,287.128 158.292,290.632 156.83,294.217 149.317,290.632 				"/>
				<path style="fill:#8C5DD1;" d="M160.836,322.098v-25.19c0-5.837-3.582-8.544-7.96-6.017l-21.863,12.623
					c-4.378,2.527-7.959,9.371-7.959,15.208v25.19L160.836,322.098z"/>
			</g>
			<path style="fill:#9E6EEA;" d="M130.097,265.879c0,0-1.25,6.493-1.474,10.267c-0.224,3.774,1.474,10.267,1.474,10.267
				s0.039-5.792,0-10.267C130.058,271.671,130.097,265.879,130.097,265.879z"/>
		</g>
		<g>
			<path style="fill:#FF9522;" d="M113.961,246.781c0,0-1.555,0.959-4.447,3.797c-2.41,2.365-4.778,6.08-5.391,7.317
				c-0.244,0.492-0.763,2.145-0.958,2.662c-1.68,0.008-3.633-0.613-6.371-1.071c-2.31-0.386-2.889-0.734-4.164-0.656
				c-1.276,0.079-1.276,1.248-0.957,1.355c0.319,0.106,1.063,1.276,0.638,2.977c-0.425,1.701-1.276,1.734-1.276,1.734
				s-0.021,1.638,1.329,1.934c2.099,0.459,4.884,1.555,7.283,1.981c3.519,0.624,5.57,1.471,6.432,0.662
				c1.641-1.539,3.215-3.183,3.215-3.183s-0.215-8.275,1.207-11.388c1.422-3.112,4.794-6.29,4.794-6.29L113.961,246.781z"/>
			<path style="fill:#61DCFF;" d="M86.029,326.465c0,0-2.239,3.183-5.313,5.343c-2.682,1.884-2.544,2.513-2.758,4.26
				c-0.285,2.325,2.689,2.676,4.665,1.44c0.744-0.465,1.948-0.381,2.997-0.98c1.738-0.993,3.522-3.254,4.904-3.649
				c2.243-0.642,3.523-0.373,4.202-2.021c0.755-1.832,0.523-3.201,0-4.704C93.589,322.884,86.029,326.465,86.029,326.465z"/>
			<path style="fill:#61DCFF;" d="M100.476,336.733c0,0-2.239,3.183-5.312,5.342c-2.682,1.884-2.544,2.513-2.758,4.26
				c-0.285,2.325,2.689,2.676,4.665,1.44c0.744-0.465,1.948-0.381,2.997-0.98c1.738-0.992,3.522-3.254,4.904-3.649
				c2.243-0.642,3.523-0.373,4.202-2.021c0.755-1.832,0.523-3.201,0-4.704C108.036,333.151,100.476,336.733,100.476,336.733z"/>
			<path style="fill:#0745A8;" d="M130.844,286.105l-18.972-6.609c0,0-3.557,2.395-8.929,5.637
				c-3.132,1.889-10.865,6.442-13.626,8.393c-1.702,1.202-2.703,4.721-3.366,10.562c-1.094,9.648-1.897,23.054-1.897,23.054
				s1.924,2.694,6.288,2.678c3.348-0.013,5.853-1.054,5.853-1.054l0.679-24.593l14.57-8.417c0,0-8.264,5.116-9.45,9.656
				c-0.953,3.648-1.272,6.445-1.417,10.998c-0.311,9.807-0.415,20.337-0.415,20.337s0.646,3.252,5.009,3.235
				c3.348-0.013,6.108-2.737,6.108-2.737l0.883-26.588c0,0,12.584-8.97,15.881-12.764
				C131.735,293.645,130.844,286.105,130.844,286.105z"/>
			<g>
				<path style="fill:#FFB41F;" d="M115.609,248.223c0,0-5.673,4.582-6.348,11.056c-0.163,1.565-0.445,8.022-0.79,12.872
					c-0.107,1.507,1.093,2.929,0.982,4.168c-0.09,1.001-1.39,1.924-1.674,2.549c-0.692,1.527-0.496,2.369,0.686,3.415
					c3.431,3.037,12.226,8.237,22.379,7.93c1.529-0.97,1.571-2.834,1.578-5.081c0.008-2.837-0.987-4.535-0.83-7.678
					c0.145-2.909,1.688-4.992,2.104-8.391c0.621-5.066,0.129-11.194-0.022-12.333c-0.425-3.183-7.641-6.631-7.641-6.631
					S120.913,246.137,115.609,248.223z"/>
				<g>
					<path style="fill:#FFA08D;" d="M117.634,248.025l-0.177,2.574c0,0-1.939,3.98-1.464,5.228c0.338,0.889,3.007,0.376,3.907,0.558
						c1.85,0.375,5.798-6.457,5.798-6.457s-0.934-0.542-1.094-1.788c-0.153-1.195-0.381-4.902-0.381-4.902L117.634,248.025z"/>
					<path style="fill:#FFC5B3;" d="M124.996,234.727c-1.876-2.39-7.267-4.404-10.78,0.794c-3.683,5.451-0.203,14.364,3.024,13.843
						c1.807-0.291,5.876-1.938,7.658-4.849C126.905,241.239,126.453,236.584,124.996,234.727z"/>
				</g>
			</g>
			<path style="fill:#FF9522;" d="M117.457,250.599c0,0-2.391,2.827-2.446,4.718c-0.055,1.892,3.666,4.868,7.387,1.041
				c3.721-3.827,4.601-5.76,4.601-5.76l-1.301-0.671c0,0-2.625,2.727-4.004,3.985c-1.379,1.259-2.981,2.109-4.402,1.51
				C116.073,254.91,117.292,252.398,117.457,250.599z"/>
			<path style="fill:#FF9522;" d="M115.296,283.399c0,0,2.493,2.445,6.161,2.711s6.849-0.478,6.88-0.478
				c0.031,0-4.408-0.638-6.574-1.063C119.596,284.143,115.296,283.399,115.296,283.399z"/>
			<path style="fill:#002F68;" d="M122.162,230.114c3.228,0.805,4.788,1.45,4.848,3.206c0.818,0.628,1.376,1.553,1.666,2.402
				c0.391,1.145,0.329,2.801-0.016,4.452c-1.669,3.659-3.577,3.911-3.577,3.911s0.498-1.996,0.058-2.865
				c-0.376-0.742-1.562-0.87-1.961,0.45c-0.441,0.135-0.968,0.095-0.968,0.095l0.4-2.638c0,0-2.01,1.019-4.291-0.299
				c-2.114-1.223-4.172-0.511-4.907,0.184c-0.447-1.123-0.558-4.805,0.449-5.441c-0.856-0.672-1.274-1.284-1.769-2.018
				C114.475,231.858,118.636,228.607,122.162,230.114z"/>
			<g>
				<path style="fill:#0E58C4;" d="M128.521,237.99c0.02,0.031,0.04,0.062,0.059,0.093c0.236-0.384,0.37-0.792,0.388-1.216
					c0.001-0.032,0.005-0.064,0.005-0.097c0-0.413-0.089-0.671-0.297-1.048c0.004,0.114,0.152,0.452,0.161,0.9
					C128.846,237.022,128.729,237.513,128.521,237.99z"/>
				<polygon style="fill:#37A0F5;" points="122.203,245.35 123.988,244.333 123.039,243.656 121.874,243.871 				"/>
				<path style="fill:#37A0F5;" d="M112.61,234.756l1.801-1.042l0.709,2.364c0,0-0.993,0.422-0.969,0.429
					C114.175,236.515,112.61,234.756,112.61,234.756z"/>
				<path style="fill:#37A0F5;" d="M115.044,239.492c0,0,1.649,2.54,2.691,3.142c1.042,0.602,5.645,1.671,5.645,1.671
					c0.489,0.283,0.89-0.02,0.89-0.672v-3.379c0-0.706-0.234-1.23-0.655-1.522c-0.153-0.106-0.399-0.216-0.671-0.282
					c-1.173-0.283-2.923-0.725-5.072-1.943c-1.817-1.029-2.292-1.968-2.7-2.573c-0.082-0.122-0.264-0.268-0.47-0.299
					c-0.317-0.049-0.548,0.287-0.548,0.778v3.379C114.154,238.445,114.555,239.21,115.044,239.492z"/>
				<polygon style="fill:#61DCFF;" points="119.126,247.126 122.177,245.366 119.628,242.884 118.473,243.583 				"/>
				<polygon style="fill:#61DCFF;" points="109.595,236.493 112.69,234.709 113.117,238.64 				"/>
				<path style="fill:#61DCFF;" d="M113.303,240.486l8.337,4.813c0.489,0.283,0.889-0.02,0.889-0.673v-3.379
					c0-0.652-0.4-1.417-0.889-1.7l-8.337-4.813c-0.489-0.282-0.889,0.02-0.889,0.673v3.379
					C112.414,239.438,112.814,240.203,113.303,240.486z"/>
				<path style="fill:#002F68;" d="M110.184,242.284l8.337,4.813c0.489,0.282,0.889-0.02,0.889-0.673v-3.379
					c0-0.652-0.4-1.417-0.889-1.7l-8.337-4.813c-0.489-0.282-0.889,0.02-0.889,0.673v3.379
					C109.294,241.236,109.695,242.001,110.184,242.284z"/>
				<path style="fill:#002F68;" d="M118.175,247.672l0.951-0.547l-0.285-0.678c0,0-1.138,0.479-1.138,0.511
					C117.702,246.99,118.175,247.672,118.175,247.672z"/>
				<polygon style="fill:#002F68;" points="108.678,237.018 109.595,236.493 109.99,236.884 109.137,237.661 				"/>
				<path style="fill:#37A0F5;" d="M109.247,242.821l8.337,4.813c0.489,0.283,0.89-0.02,0.89-0.673v-3.379
					c0-0.652-0.4-1.417-0.89-1.7l-8.337-4.813c-0.489-0.282-0.889,0.02-0.889,0.673v3.379
					C108.357,241.774,108.758,242.539,109.247,242.821z"/>
				<path style="fill:#002F68;" d="M117.333,242.164l-7.836-4.538c-0.418-0.241-0.76,0.017-0.76,0.575v2.887
					c0,0.557,0.342,1.211,0.76,1.452l7.836,4.538c0.418,0.241,0.76-0.017,0.76-0.575v-2.888
					C118.093,243.059,117.751,242.405,117.333,242.164z"/>
				<polygon style="fill:#FFFFFF;" points="112.176,240.016 114.352,241.273 114.352,240.865 112.176,239.609 				"/>
				<path style="fill:#41A0E2;" d="M121.671,245l-1.275,0.736c-0.242,0.14-0.44-0.01-0.44-0.332v-1.701c0-0.322,0.198-0.7,0.44-0.84
					l1.275-0.736c0.242-0.14,0.439,0.01,0.439,0.332v1.701C122.11,244.483,121.913,244.861,121.671,245z"/>
				<polygon style="fill:#41A0E2;" points="121.969,242.112 121.843,242.034 121.801,242.073 121.925,242.19 				"/>
				<polygon style="fill:#41A0E2;" points="119.991,245.685 120.132,245.771 120.186,245.685 120.011,245.61 				"/>
				<path style="fill:#FFFFFF;" d="M121.57,244.936l-1.275,0.736c-0.242,0.139-0.44-0.01-0.44-0.332v-1.701
					c0-0.322,0.198-0.7,0.44-0.84l1.275-0.736c0.242-0.14,0.439,0.01,0.439,0.332v1.701
					C122.009,244.419,121.811,244.797,121.57,244.936z"/>
				<path style="fill:#41A0E2;" d="M121.506,243.555c0,0.399-0.243,0.863-0.543,1.036c-0.299,0.173-0.542-0.011-0.542-0.41
					c0-0.4,0.243-0.863,0.542-1.036C121.263,242.972,121.506,243.156,121.506,243.555z"/>
				<polygon style="fill:#002F68;" points="118.246,238.274 115.176,236.497 115.566,236.272 118.636,238.049 				"/>
				<g>
					<path style="fill:#0E58C4;" d="M123.332,230.486l-0.001,0.001c-0.835-0.494-1.928-0.456-3.125,0.235
						c-1.825,1.054-3.409,3.343-4.202,5.815l2.253,1.304c0.793-2.472,2.375-4.76,4.2-5.813c0.066-0.038,0.131-0.073,0.196-0.107
						c0.576-0.301,1.256-0.576,1.761-0.592c0.935-0.029,1.603,0.156,1.603,0.156L123.332,230.486z"/>
					<path style="fill:#0745A8;" d="M123.289,230.349c-0.888-0.276-1.949-0.461-3.16,0.238c-1.845,1.065-3.446,3.379-4.248,5.879
						l2.277,1.318c0.802-2.499,2.401-4.812,4.246-5.877c0.067-0.038,0.133-0.073,0.198-0.108c0.582-0.304,1.316-0.62,1.826-0.604
						c0.945,0.03,1.588,0.291,1.588,0.291S124.999,230.88,123.289,230.349z"/>
				</g>
				<polygon style="fill:#61DCFF;" points="124.053,240.371 123.564,240.661 123.564,243.98 124.053,243.698 				"/>
				<path style="fill:#0E58C4;" d="M128.868,239.311v-2.444h-0.002c-0.018,0.417-0.15,0.82-0.383,1.198
					c-0.292,0.475-0.739,0.911-1.31,1.294c-0.859,0.575-1.825,1.011-3.296,1.479c-0.001,0-0.003,0.001-0.004,0.001l-0.064,0.088
					l0.064,2.504c2.938-0.802,4.998-2.303,4.998-4.072C128.87,239.343,128.868,239.327,128.868,239.311z"/>
				<path style="fill:#0745A8;" d="M128.971,239.347v-2.48h-0.002c-0.018,0.424-0.152,0.832-0.388,1.216
					c-0.296,0.482-0.75,0.925-1.33,1.313c-0.891,0.596-1.895,1.046-3.443,1.531v2.626c3.032-0.807,5.165-2.344,5.165-4.158
					C128.974,239.379,128.972,239.363,128.971,239.347z"/>
				<polygon style="fill:#2DC6EA;" points="123.564,240.661 123.391,240.57 123.391,243.875 123.564,243.98 				"/>
				<polygon style="fill:#FFFFFF;" points="123.391,240.57 123.564,240.661 124.053,240.371 123.892,240.286 				"/>
			</g>
			<path style="fill:#FFC5B3;" d="M89.547,259.601c-1.772-0.779-2.649-1.288-4.465-1.386c-2.87-0.155-4.729,0.821-6.032,0.921
				c-0.4,0.031-1.41,0.12-0.944,0.786c-0.585-0.068-1.12,0.171-0.415,0.931c-0.888,0.196-0.379,0.899,0.276,1.113
				c-0.287,0.638,3.478,1.048,4.377,0.997c0.9-0.052,4.651-0.279,7.002,1.226C90.95,265.217,89.976,259.789,89.547,259.601z"/>
			<path style="fill:#FFB41F;" d="M89.547,259.601c-0.048-0.152,2.552,0.425,2.552,0.425s1.542,1.329,0.904,3.136
				c-0.638,1.807-1.276,2.02-1.276,2.02l-3.025-0.901C88.702,264.281,90.132,261.462,89.547,259.601z"/>
			<path style="fill:#FF9522;" d="M134.341,254.801c-1.841-2.506-4.097-2.109-4.097-2.109c-1.32,0.689-2.742,5.754-3.454,8.507
				c-0.701,2.708,1.8,11.622,1.958,12.127c-1.252,0.438-5.838,1.446-6.947,1.744c-2.534,0.681-2.222,2.22-2.286,3.53
				c-0.064,1.31,1.095,2.244,1.861,3.822c0.766,1.578,6.896,0.316,8.732-0.495c2.315-1.022,4.492-1.255,5.687-3.055
				c0.724-1.09,0.013-2.416,0.58-4.908C137.81,267.65,136.529,257.781,134.341,254.801z"/>
			<path style="fill:#FFBD48;" d="M120.691,276.957l-2.766,1.475c0,0,1.132,0.554,1.882,1.553c0.712,0.948,0,2.437,0,2.437
				s2.584-0.359,3.202-1.269C124.007,279.685,122.752,276.749,120.691,276.957z"/>
			<path style="fill:#FFC5B3;" d="M117.557,277.245c-1.511-0.273-3.136-0.543-3.88-0.785c-0.744-0.242-0.118,1.012,1.001,1.534
				c1.118,0.522,1.336,1.951,1.336,1.951s-1.256,1.356-2.163,2.182c-0.548,0.499-2.298,0.919-3.145,1.647
				c-0.847,0.728,0.456,0.647,1.45,1.181c0.994,0.534,3.873,1.664,5.271,0.203c1.397-1.461,3.044-3.035,3.302-3.856
				C120.986,280.48,120.785,277.828,117.557,277.245z"/>
		</g>
	</g>
	<g>
		<polygon style="opacity:0.5;fill:#61DCFF;" points="52.47,275.44 119.695,314.252 119.695,255.436 52.47,216.624 		"/>
		<polygon style="opacity:0.5;fill:#2E57AA;" points="67.849,278.957 54.282,271.124 54.282,273.782 67.849,281.615 		"/>
		<polygon style="opacity:0.5;fill:#2E57AA;" points="67.849,273.712 54.282,265.879 54.282,268.537 67.849,276.37 		"/>
		<polygon style="opacity:0.5;fill:#2E57AA;" points="67.849,268.228 54.282,260.395 54.282,263.053 67.849,270.886 		"/>
		<polygon style="opacity:0.5;fill:#2E57AA;" points="67.849,262.983 54.282,255.15 54.282,257.807 67.849,265.641 		"/>
		<polygon style="opacity:0.5;fill:#2E57AA;" points="67.849,257.499 54.282,249.666 54.282,252.324 67.849,260.157 		"/>
		<polygon style="opacity:0.5;fill:#2E57AA;" points="67.849,252.254 54.282,244.421 54.282,247.078 67.849,254.911 		"/>
		<polygon style="opacity:0.5;fill:#2E57AA;" points="67.849,246.77 54.282,238.937 54.282,241.594 67.849,249.428 		"/>
		<polygon style="opacity:0.5;fill:#2E57AA;" points="67.849,241.525 54.282,233.691 54.282,236.349 67.849,244.182 		"/>
		<polygon style="opacity:0.5;fill:#2E57AA;" points="67.849,229.086 54.282,221.253 54.282,228.343 67.849,236.176 		"/>
		<polygon style="opacity:0.5;fill:#00B3FC;" points="117.216,257.761 103.649,249.928 103.649,257.019 117.216,264.852 		"/>
		<polygon style="opacity:0.5;fill:#FFFFFF;" points="111.969,264.659 111.969,271.75 117.216,274.779 117.216,267.688 		"/>
		<polygon style="opacity:0.5;fill:#FFFFFF;" points="111.969,275.26 111.969,282.351 117.216,285.38 117.216,278.29 		"/>
		<polygon style="opacity:0.5;fill:#FFFFFF;" points="111.969,285.862 111.969,292.953 117.216,295.982 117.216,288.891 		"/>
		<polygon style="opacity:0.5;fill:#FFFFFF;" points="111.969,296.463 111.969,303.554 117.216,306.583 117.216,299.492 		"/>
		<polygon style="opacity:0.5;fill:#00B3FC;" points="97.424,246.327 83.857,238.494 83.857,254.296 97.424,262.129 		"/>
		<polygon style="opacity:0.5;fill:#00B3FC;" points="98.615,274.272 85.048,266.439 85.048,282.241 98.615,290.075 		"/>
		<path style="opacity:0.5;fill:#FFFFFF;" d="M91.837,275.266c-0.014-0.008-0.027-0.013-0.04-0.02
			c-0.501-0.278-0.958-0.307-1.331-0.146l-7.035-13.026l-0.056-0.104l-14.68-8.476v0.516l14.525,8.386l6.956,12.88
			c-0.381,0.323-0.617,0.911-0.617,1.712c0,1.678,1.02,3.627,2.278,4.353c1.258,0.727,2.278-0.045,2.278-1.722
			S93.096,275.992,91.837,275.266z"/>
		<path style="opacity:0.5;fill:#2E57AA;" d="M91.831,276.669c-0.007-0.004-0.014-0.007-0.021-0.011
			c-0.648-0.359-1.17,0.044-1.17,0.911l0,0c0,0.877,0.533,1.895,1.191,2.275c0.658,0.38,1.191-0.023,1.191-0.9
			C93.022,278.067,92.489,277.048,91.831,276.669z"/>
		<path style="opacity:0.5;fill:#2E57AA;" d="M90.641,248.723c-0.007-0.004-0.014-0.007-0.021-0.011
			c-0.648-0.359-1.17,0.043-1.17,0.911c0,0.278,0.068,0.566,0.162,0.848l-7.455,5.085l-13.462-7.772v0.516l13.616,7.861l7.537-5.141
			c0.211,0.377,0.485,0.701,0.793,0.878c0.658,0.38,1.191-0.023,1.191-0.9C91.832,250.122,91.298,249.103,90.641,248.723z"/>
		<path style="opacity:0.5;fill:#FFFFFF;" d="M90.641,249.243c-0.005-0.003-0.009-0.005-0.014-0.007
			c-0.436-0.242-0.787,0.029-0.787,0.613l0,0c0,0.59,0.359,1.275,0.801,1.531c0.443,0.256,0.801-0.016,0.801-0.606
			C91.442,250.184,91.083,249.498,90.641,249.243z"/>
		<path style="opacity:0.5;fill:#FFFFFF;" d="M102.566,264.011c-0.024-0.014-0.046-0.023-0.07-0.036
			c-2.149-1.19-3.881,0.144-3.881,3.022l0,0c0,2.909,1.769,6.288,3.951,7.548c2.182,1.26,3.951-0.078,3.951-2.986
			S104.747,265.271,102.566,264.011z"/>
		<path style="opacity:0.5;fill:#2E57AA;" d="M102.566,266.155c-0.014-0.008-0.027-0.013-0.041-0.021
			c-1.275-0.706-2.301,0.086-2.301,1.792l0,0c0,1.725,1.049,3.729,2.343,4.476c1.294,0.747,2.343-0.046,2.343-1.771
			S103.86,266.903,102.566,266.155z"/>
		<g style="opacity:0.5;">
			<path style="opacity:0.5;fill:#00B3FC;" d="M101.955,274.13v23.19l-20.008-11.804l0.1-9.761l-12.976-6.474v1.426l11.693,5.833
				l-0.1,9.7l22.566,13.314v-24.699c0,0-0.333-0.124-0.665-0.309C102.311,274.403,101.955,274.13,101.955,274.13z"/>
		</g>
	</g>
</g>
<g>
	<path style="fill:#2DC6EA;" d="M198.339,288.013c0,0,0.755,3.151,1.351,5.238c0.596,2.086,0.663,3.18,1.226,5.266
		c0.563,2.087-1.293,2.149-2.577,2.149c-1.928,0-4.043-1.228-4.932-1.591c-2.316-0.947-1.864-3.539-2.063-5.526
		c-0.199-1.987-1.391-5.862-0.994-7.253C190.747,284.904,198.339,288.013,198.339,288.013z"/>
	<path style="fill:#2DC6EA;" d="M217.02,283.123c0,0,2.178,3.096,5.167,5.196c2.608,1.833,2.474,2.444,2.683,4.143
		c0.278,2.261-2.615,2.603-4.537,1.401c-0.723-0.452-1.895-0.371-2.915-0.954c-1.69-0.965-3.425-3.165-4.769-3.549
		c-2.181-0.624-3.426-0.362-4.087-1.965c-0.734-1.782-0.508-3.113,0-4.575C209.668,279.64,217.02,283.123,217.02,283.123z"/>
	<path style="fill:#FFC5B3;" d="M218.888,191.844c0,0,0.987,2.095,2.476,5.667c1.146,2.749,2.935,7.37,2.935,7.37
		s4.677-2.061,8.071-2.86c0.559-0.132,1.9-0.739,2.354-0.922c0.737,1.525,1.831,2.71,2.568,4.235
		c-1.826,1.172-5.778,3.679-8.133,4.734c-3.663,1.641-6.832,1.846-8.253,1.253c-1.421-0.593-6.67-11.351-6.67-11.351
		L218.888,191.844z"/>
	<path style="fill:#2DC6EA;" d="M211.493,184.324c0,0,2.028-1.655,6.072,2.319c4.044,3.975,4.82,11.378,4.82,11.378
		s-2.651,3.087-7.274,2.366C210.488,199.666,211.493,184.324,211.493,184.324z"/>
	<path style="fill:#0745A8;" d="M211.109,214.27c3.812,1.134,7.332,2.503,7.332,2.503s2.413,17.818,3.152,28.531
		c0.84,12.175-2.251,37.602-2.251,37.602s-0.43,2.599-4.912,2.23c-3.439-0.283-6.056-3.305-6.056-3.305l2.236-29.113l-3.937-17.167
		C207.254,225.794,210.333,224.014,211.109,214.27z"/>
	<path style="fill:#0745A8;" d="M188.459,284.737c0,0,2.697-19.146,7.836-30.709c0.428-8.779-2.848-18.845-0.85-27.547
		c2.497-10.875,6.41-10.576,6.41-10.576c-0.238-1.828,3.771-1.517,7.945-0.72c-0.008,7.283-0.055,14.567-0.007,21.85l-0.087-0.43
		c0,0-0.59,14.469-2.827,22.349c-2.952,10.405-5.375,29.93-5.375,29.93s-5.837,2.083-9.835,0.085
		C187.674,286.97,188.459,284.737,188.459,284.737z"/>
	<path style="fill:#002F68;" d="M201.855,226.179c0,0-1.443,4.89-2.525,6.485c-1.082,1.595-4.473,2.551-4.473,2.551
		s-0.53-6.625,1.058-10.595C197.504,220.65,201.855,226.179,201.855,226.179z"/>
	<path style="fill:#61DCFF;" d="M212.501,185.261c-0.778,0.326-1.159,1.088-1.159,1.088l-9.189,0.168c0,0-7.469,1.541-9.227,7.326
		c-0.129,1.816,0.085,6.047,0.376,7.949c0.269,0.166,2.016-0.114,2.143,0.257c2.336,6.802,0.96,15.733,0.47,22.57
		c8.38,6.031,18.371,2.911,23.427-0.853C217.384,210.384,223.13,194.934,212.501,185.261z"/>
	<g>
		<path style="fill:#FFAD97;" d="M210.31,185.04l-6.979-5.07l-1.476,8.2c0,0,1.418,1.696,3.51,2.793
			c1.748,0.917,3.864,1.756,5.771,2.351c0.802-1.434,0-3.46,0-3.46L210.31,185.04z"/>
		<path style="fill:#FFC5B3;" d="M202.514,170.957c-1.543,1.967-2.022,6.897,0.104,10.367c1.888,3.083,6.197,4.827,8.111,5.135
			c3.417,0.551,7.104-8.888,3.203-14.661C210.21,166.292,204.5,168.425,202.514,170.957z"/>
		<path style="fill:#002F68;" d="M205.538,167.354c-3.227,0.805-4.788,1.45-4.848,3.206c-0.818,0.628-1.376,1.553-1.666,2.402
			c-0.391,1.145-0.329,2.801,0.016,4.453c1.669,3.659,3.577,3.911,3.577,3.911s-0.498-1.996-0.058-2.865
			c0.376-0.742,1.562-0.87,1.961,0.449c0.441,0.135,0.968,0.095,0.968,0.095l-0.4-2.637c0,0,2.01,1.019,4.29-0.299
			c2.114-1.223,4.172-0.511,4.908,0.183c0.447-1.122,0.558-4.805-0.449-5.441c0.856-0.673,1.274-1.284,1.769-2.018
			C213.225,169.098,209.064,165.847,205.538,167.354z"/>
	</g>
	<path style="fill:#2DC6EA;" d="M210.535,186.35c0.456,2.602,0.602,6.966,0.602,6.966s2.633-2.061,3.974-2.274
		c-0.376-1.885-2.253-5.447-2.253-5.447C212.65,185.827,211.511,186.721,210.535,186.35z"/>
	<path style="fill:#2DC6EA;" d="M202.548,184.324c0,0-1.226,1.439-1.362,2.133c-0.432,2.204,2.596,5.181,4.359,7.475
		c4.883-0.616,5.591-0.616,5.591-0.616s-2.642-2.992-4.189-4.22C203.322,186.215,202.548,184.324,202.548,184.324z"/>
	<path style="fill:#FFC5B3;" d="M209.969,214.75c0,0,0.877,1.249,0.904,1.595c0.027,0.345-1.846,0.453-2.073-0.213
		C208.573,215.466,209.969,214.75,209.969,214.75z"/>
	<path style="fill:#002F68;" d="M211.765,210.395c1.997,0.978,2.341,2.979,1.058,3.691c-1.283,0.711-2.473,0.47-2.473,0.47
		s-0.71,2.812-0.726,4.554c-0.012,1.276-0.319,3.934-0.638,4.917c-0.683,2.105-2.805,1.841-2.941-0.831
		c-0.136-2.671,0.042-10.314,1.972-12.253C208.759,210.196,210.667,209.857,211.765,210.395z"/>
	<path style="fill:#FFC5B3;" d="M196.786,202.551c-0.558,4.518-2.014,9.462-2.014,9.462s7.917,2.81,9.429,2.684
		c0.852-0.071,1.808-0.319,2.441-0.427c-0.104,0.527-0.104,0.527-0.211,1.17c0.99-0.168,3.378,0.015,4.468,0.718
		c0.53,0.342,0.316,1.143-0.133,1.728c0.452,0.558,0.612,0.957-0.106,1.648c0.372,0.425,0.105,1.223-0.478,1.701
		c0.103,0.361,0.292,0.824-0.382,1.143c-1.707,0.808-3.1,0.203-4.456-0.399c-1.196-0.531-1.468-1.424-2.451-2.283
		c-0.548-0.478-3.184-0.667-6.825-0.933c-3.185-0.232-5.789-1.077-7.602-1.648c-1.518-0.478-1.695-2.302-1.409-4.837
		c0.539-4.778,1.703-9.682,2.631-11.349C191.111,198.377,196.786,202.551,196.786,202.551z"/>
	<path style="fill:#2DC6EA;" d="M195.88,189.553c-5.489,0.725-6.469,7.41-7.966,15.686c3.854,1.914,6.235,3.317,9.687,2.142
		c0.329-1.633,1.055-3.406,1.469-5.926C199.845,196.731,198.923,189.151,195.88,189.553z"/>
	<g>
		<path style="fill:#0E58C4;" d="M199.179,175.229c-0.02,0.031-0.04,0.062-0.059,0.093c-0.236-0.384-0.37-0.792-0.388-1.216
			c-0.001-0.032-0.005-0.064-0.005-0.097c0-0.413,0.089-0.671,0.297-1.048c-0.004,0.114-0.152,0.452-0.162,0.9
			C198.854,174.262,198.971,174.753,199.179,175.229z"/>
		<polygon style="fill:#37A0F5;" points="205.497,182.59 203.712,181.572 204.661,180.895 205.826,181.111 		"/>
		<path style="fill:#37A0F5;" d="M215.09,171.995l-1.801-1.042l-0.71,2.364c0,0,0.993,0.422,0.969,0.43
			C213.525,173.754,215.09,171.995,215.09,171.995z"/>
		<path style="fill:#37A0F5;" d="M212.656,176.732c0,0-1.65,2.54-2.692,3.142c-1.042,0.602-5.645,1.671-5.645,1.671
			c-0.489,0.283-0.889-0.02-0.889-0.673v-3.379c0-0.707,0.234-1.23,0.655-1.522c0.153-0.106,0.398-0.216,0.671-0.282
			c1.173-0.283,2.923-0.726,5.072-1.943c1.817-1.029,2.292-1.968,2.7-2.573c0.083-0.122,0.264-0.268,0.471-0.299
			c0.317-0.049,0.548,0.287,0.548,0.778v3.379C213.546,175.684,213.145,176.449,212.656,176.732z"/>
		<polygon style="fill:#61DCFF;" points="208.574,184.365 205.523,182.606 208.072,180.124 209.227,180.822 		"/>
		<polygon style="fill:#61DCFF;" points="218.105,173.732 215.01,171.949 214.583,175.879 		"/>
		<path style="fill:#61DCFF;" d="M214.397,177.725l-8.336,4.813c-0.489,0.282-0.89-0.02-0.89-0.673v-3.379
			c0-0.652,0.4-1.417,0.89-1.7l8.336-4.813c0.489-0.283,0.889,0.02,0.889,0.672v3.38
			C215.286,176.678,214.886,177.443,214.397,177.725z"/>
		<path style="fill:#002F68;" d="M217.516,179.523l-8.336,4.813c-0.489,0.282-0.89-0.02-0.89-0.673v-3.379
			c0-0.652,0.4-1.417,0.89-1.7l8.336-4.813c0.489-0.283,0.889,0.02,0.889,0.673v3.379
			C218.406,178.476,218.005,179.241,217.516,179.523z"/>
		<path style="fill:#002F68;" d="M209.525,184.912l-0.951-0.547l0.285-0.678c0,0,1.138,0.479,1.138,0.51
			C209.998,184.23,209.525,184.912,209.525,184.912z"/>
		<polygon style="fill:#002F68;" points="219.022,174.257 218.105,173.732 217.71,174.124 218.563,174.9 		"/>
		<path style="fill:#37A0F5;" d="M218.453,180.061l-8.336,4.813c-0.489,0.282-0.89-0.02-0.89-0.673v-3.379
			c0-0.652,0.4-1.417,0.89-1.7l8.336-4.813c0.489-0.282,0.889,0.02,0.889,0.673v3.379
			C219.343,179.014,218.942,179.778,218.453,180.061z"/>
		<path style="fill:#002F68;" d="M210.367,179.403l7.836-4.538c0.418-0.241,0.76,0.017,0.76,0.575v2.888
			c0,0.557-0.342,1.211-0.76,1.452l-7.836,4.538c-0.418,0.241-0.76-0.017-0.76-0.575v-2.887
			C209.607,180.298,209.949,179.645,210.367,179.403z"/>
		<polygon style="fill:#FFFFFF;" points="215.524,177.256 213.348,178.512 213.348,178.105 215.524,176.849 		"/>
		<path style="fill:#41A0E2;" d="M206.029,182.24l1.276,0.736c0.242,0.14,0.439-0.01,0.439-0.332v-1.701
			c0-0.322-0.198-0.7-0.439-0.84l-1.276-0.736c-0.242-0.14-0.439,0.01-0.439,0.332v1.701
			C205.59,181.722,205.787,182.1,206.029,182.24z"/>
		<polygon style="fill:#41A0E2;" points="205.731,179.352 205.857,179.273 205.9,179.313 205.775,179.43 		"/>
		<polygon style="fill:#41A0E2;" points="207.709,182.924 207.568,183.01 207.514,182.924 207.689,182.85 		"/>
		<path style="fill:#FFFFFF;" d="M206.13,182.176l1.275,0.736c0.242,0.14,0.44-0.01,0.44-0.332v-1.701c0-0.322-0.198-0.7-0.44-0.84
			l-1.275-0.736c-0.242-0.14-0.44,0.01-0.44,0.332v1.701C205.691,181.658,205.889,182.036,206.13,182.176z"/>
		<path style="fill:#41A0E2;" d="M206.194,180.795c0,0.399,0.243,0.863,0.542,1.036c0.299,0.173,0.542-0.011,0.542-0.41
			c0-0.4-0.243-0.863-0.542-1.036C206.437,180.212,206.194,180.395,206.194,180.795z"/>
		<polygon style="fill:#002F68;" points="209.454,175.514 212.524,173.736 212.134,173.512 209.064,175.289 		"/>
		<g>
			<path style="fill:#0E58C4;" d="M204.368,167.726l0.001,0.001c0.835-0.494,1.928-0.456,3.125,0.235
				c1.825,1.054,3.409,3.342,4.202,5.815l-2.252,1.304c-0.793-2.472-2.375-4.76-4.2-5.813c-0.066-0.038-0.131-0.072-0.196-0.107
				c-0.576-0.301-1.256-0.576-1.761-0.592c-0.935-0.029-1.603,0.156-1.603,0.156L204.368,167.726z"/>
			<path style="fill:#0745A8;" d="M204.411,167.589c0.888-0.276,1.949-0.462,3.16,0.237c1.845,1.065,3.447,3.379,4.248,5.879
				l-2.277,1.318c-0.802-2.499-2.401-4.813-4.246-5.877c-0.066-0.038-0.132-0.073-0.198-0.108c-0.582-0.304-1.316-0.62-1.826-0.604
				c-0.946,0.03-1.588,0.291-1.588,0.291S202.701,168.12,204.411,167.589z"/>
		</g>
		<polygon style="fill:#61DCFF;" points="203.647,177.611 204.136,177.9 204.136,181.219 203.647,180.937 		"/>
		<path style="fill:#0E58C4;" d="M198.832,176.55v-2.444h0.002c0.018,0.418,0.15,0.82,0.383,1.198
			c0.292,0.475,0.739,0.911,1.31,1.294c0.859,0.575,1.825,1.012,3.296,1.479c0.001,0,0.003,0.001,0.004,0.001l0.064,0.088
			l-0.064,2.504c-2.938-0.802-4.998-2.303-4.998-4.072C198.83,176.582,198.832,176.566,198.832,176.55z"/>
		<path style="fill:#0745A8;" d="M198.729,176.586v-2.48h0.002c0.018,0.424,0.153,0.832,0.388,1.216
			c0.296,0.482,0.75,0.925,1.33,1.313c0.891,0.596,1.895,1.046,3.443,1.531v2.626c-3.032-0.807-5.165-2.344-5.165-4.158
			C198.726,176.619,198.728,176.603,198.729,176.586z"/>
		<polygon style="fill:#2DC6EA;" points="204.136,177.9 204.309,177.81 204.309,181.114 204.136,181.219 		"/>
		<polygon style="fill:#FFFFFF;" points="204.309,177.81 204.136,177.9 203.647,177.611 203.808,177.525 		"/>
	</g>
	<g>
		<path style="fill:#002F68;" d="M238.861,201.874c0.629-2.328,1.438-4.02,2.098-5.142l-0.001,0l0.005-0.007
			c0.453-0.771,1.017-1.609,1.396-2.162c0.201-0.292,1.043-0.544,1.392-0.611c1.11-0.212,3.228-0.625,4.979,0.393
			c1.659,0.965,1.301,2.956-1.61,3.474c-0.644,0.115-2.261-0.006-3.057-0.153c-0.075,0.63-1.919,7.009-2.597,8.969
			c-0.692,2.001-2.503,2.958-3.139,2.001C237.691,207.68,237.902,205.425,238.861,201.874z"/>
		<path style="fill:#0745A8;" d="M248.259,194.109c0,0,1.153,0.999-0.482,1.837c-1.635,0.837-4.147,0.353-4.733-0.04
			c-0.743-0.498-1.167-1.067-0.191-1.769C243.83,193.434,246.597,193.397,248.259,194.109z"/>
		<path style="fill:#37A0F5;" d="M247.646,193.893c0,0,0.993,0.912-0.322,1.586c-1.316,0.674-3.337,0.284-3.809-0.032
			c-0.598-0.401-0.939-0.859-0.154-1.424C244.148,193.457,246.309,193.32,247.646,193.893z"/>
	</g>
	<path style="fill:#FFC5B3;" d="M233.876,201.546c0,0,2.467-1.28,4.687-2.57c1.2-0.698,1.752-0.975,2.468-1.174
		c1.057-0.293,1.796-0.372,2.081-0.182c0.479,0.319-0.325,1.236-1.794,1.475c-0.997,1.116-1.783,1.55-2.419,2.64
		c-0.335,1.296-0.83,3.759-0.83,3.759l-1.993,0.04L233.876,201.546z"/>
	<path style="fill:#FFC5B3;" d="M244.07,199.539c-1.302-0.285-2.512,0.094-2.472,0.946c0.013,0.275,0.334,0.513,0.777,0.544
		c-0.525,0.116-0.875,0.243-0.817,0.777c0.028,0.252,0.425,0.431,0.698,0.419c-1.209,0.538-0.917,1.475-0.359,1.415
		c-0.578,0.319-1.096,1.196-0.06,1.355c1.032,0.159,2.392-0.478,2.233-1.355c0.658-0.379,0.508-1.296-0.02-1.495
		c0.658-0.279,0.539-0.974,0.08-1.395C244.687,200.55,244.862,199.713,244.07,199.539z"/>
	<path style="fill:#0745A8;" d="M209.286,210.232c0.889-0.236,2.001-0.183,2.789,0.335c0.487,0.32,1.018,0.997,0.595,1.471
		c-0.56,0.628-4.374,1.117-4.782-0.504C207.692,210.763,208.669,210.396,209.286,210.232z"/>
	<path style="fill:#37A0F5;" d="M209.589,210.193c0.634-0.168,1.427-0.13,1.988,0.239c0.347,0.228,0.726,0.711,0.424,1.049
		c-0.399,0.447-3.119,0.796-3.409-0.359C208.453,210.572,209.149,210.31,209.589,210.193z"/>
</g>
<g>
	<g>
		<g>
			<g>
				<path style="fill:#002F68;" d="M322.94,361.772c0-0.602-0.918-1.09-2.049-1.09c-1.132,0-2.049,0.488-2.049,1.09
					c0,0.602,0.917,1.09,2.049,1.09C322.022,362.862,322.94,362.374,322.94,361.772z"/>

					<rect x="318.841" y="358.014" transform="matrix(-1 -1.224647e-16 1.224647e-16 -1 641.78 719.7858)" style="fill:#002F68;" width="4.099" height="3.758"/>
			</g>
			<g>
				<path style="fill:#002F68;" d="M301.169,349.248c0-0.602-0.918-1.09-2.049-1.09c-1.132,0-2.049,0.488-2.049,1.09
					c0,0.602,0.918,1.09,2.049,1.09C300.252,350.338,301.169,349.85,301.169,349.248z"/>

					<rect x="297.07" y="345.49" transform="matrix(-1 -1.224647e-16 1.224647e-16 -1 598.2398 694.7375)" style="fill:#002F68;" width="4.099" height="3.758"/>
			</g>
			<g>
				<path style="fill:#002F68;" d="M378.569,329.525c0-0.602-0.917-1.09-2.05-1.09c-1.132,0-2.049,0.488-2.049,1.09
					c0,0.602,0.918,1.09,2.049,1.09C377.651,330.616,378.569,330.127,378.569,329.525z"/>

					<rect x="374.47" y="325.767" transform="matrix(-1 -1.224647e-16 1.224647e-16 -1 753.0384 655.2924)" style="fill:#002F68;" width="4.099" height="3.758"/>
			</g>
			<polygon style="fill:#002F68;" points="296.208,323.409 320.89,337.825 320.89,359.732 296.208,345.259 			"/>
			<polygon style="fill:#0745A8;" points="320.89,337.825 380.352,303.524 380.352,325.371 320.89,359.732 			"/>
			<polygon style="fill:#92EAFF;" points="380.352,302.17 320.89,336.471 296.208,322.054 355.551,287.935 			"/>
			<polygon style="fill:#61DCFF;" points="380.352,303.524 380.352,302.17 320.89,336.471 320.89,337.825 			"/>
			<polygon style="fill:#2DC6EA;" points="296.208,322.054 296.208,323.409 320.89,337.825 320.89,336.471 			"/>
		</g>
		<g>
			<g>
				<path style="fill:#002F68;" d="M349.255,310.256l-9.714-4.643c-1.127-0.539-2.662-0.555-3.559-0.036l-9.178,5.299
					c-0.898,0.518-0.87,1.404,0.063,2.055l8.041,5.608c1.088,0.759,2.952,0.894,3.998,0.29l10.85-6.264
					C350.803,311.96,350.569,310.884,349.255,310.256z"/>

					<rect x="348.979" y="310.216" transform="matrix(-1 -1.224647e-16 1.224647e-16 -1 699.3916 621.8643)" style="fill:#002F68;" width="1.433" height="1.433"/>
				<path style="fill:#3970C9;" d="M349.255,308.859l-9.714-4.643c-1.127-0.539-2.662-0.554-3.559-0.036l-9.178,5.299
					c-0.898,0.518-0.87,1.404,0.063,2.055l8.041,5.608c1.088,0.759,2.952,0.894,3.998,0.29l10.85-6.264
					C350.803,310.563,350.569,309.487,349.255,308.859z"/>
			</g>
			<g>
				<polygon style="fill:#0745A8;" points="371.289,286.223 299.12,327.938 299.12,275.652 371.289,233.739 				"/>
				<polygon style="fill:#002F68;" points="299.12,327.938 296.988,326.841 296.988,274.554 299.12,275.652 				"/>
				<polygon style="fill:#3970C9;" points="369.156,232.641 371.289,233.739 299.12,275.652 296.988,274.554 				"/>
			</g>
			<g>
				<path style="fill:#002F68;" d="M343.328,311.279c0-1.163-1.773-2.106-3.96-2.106c-2.187,0-3.96,0.943-3.96,2.106
					c0,1.164,1.773,2.107,3.96,2.107C341.555,313.385,343.328,312.442,343.328,311.279z"/>
				<path style="fill:#002F68;" d="M335.408,298.333c0,0-0.203-3.112,3.96-5.723c2.564-1.608,3.96,0.849,3.96,0.849v17.82h-7.92
					V298.333z"/>
			</g>
		</g>
	</g>
	<g>
		<g>
			<polygon style="opacity:0.5;fill:#61DCFF;" points="286.72,235.496 251.365,256.029 251.365,312.165 286.72,291.729 			"/>
			<polygon style="opacity:0.5;fill:#00B3FC;" points="283.987,240.38 267.235,250.11 267.235,266.733 283.987,257.049 			"/>
			<polygon style="opacity:0.5;fill:#00B3FC;" points="283.987,260.301 267.235,270.031 267.235,286.654 283.987,276.97 			"/>
			<polygon style="opacity:0.5;fill:#00B3FC;" points="283.987,281.345 267.235,291.075 267.235,298.615 283.987,288.931 			"/>
			<path style="opacity:0.5;fill:#2E57AA;" d="M262.469,258.591c-0.064,2.504-1.649,5.15-3.539,5.91
				c-1.89,0.76-3.37-0.653-3.305-3.157c0.065-2.504,1.649-5.15,3.539-5.91C261.054,254.674,262.533,256.087,262.469,258.591z"/>
			<path style="opacity:0.5;fill:#2E57AA;" d="M262.469,271.439c-0.064,2.504-1.649,5.15-3.539,5.91
				c-1.89,0.76-3.37-0.653-3.305-3.157c0.065-2.504,1.649-5.15,3.539-5.91C261.054,267.522,262.533,268.935,262.469,271.439z"/>
			<path style="opacity:0.5;fill:#FFFFFF;" d="M260.651,272.171c-0.03,1.174-0.773,2.414-1.659,2.77
				c-0.886,0.356-1.579-0.306-1.549-1.48c0.03-1.174,0.773-2.414,1.659-2.77C259.987,270.334,260.681,270.997,260.651,272.171z"/>
			<path style="opacity:0.5;fill:#2E57AA;" d="M262.469,284.287c-0.064,2.504-1.649,5.15-3.539,5.91
				c-1.89,0.76-3.37-0.653-3.305-3.157c0.065-2.504,1.649-5.15,3.539-5.91C261.054,280.37,262.533,281.783,262.469,284.287z"/>
			<path style="opacity:0.5;fill:#2E57AA;" d="M262.469,297.135c-0.064,2.504-1.649,5.15-3.539,5.91
				c-1.89,0.76-3.37-0.653-3.305-3.157c0.065-2.504,1.649-5.15,3.539-5.91C261.054,293.218,262.533,294.631,262.469,297.135z"/>
		</g>
		<g>
			<polygon style="opacity:0.5;fill:#2E57AA;" points="292.95,309.815 265.791,325.496 265.791,305.928 267.235,305.079
				267.235,323.215 292.95,308.384 			"/>
		</g>
		<g>
			<polygon style="opacity:0.5;fill:#61DCFF;" points="332.435,195.418 297.081,215.951 297.081,258.067 332.435,237.631 			"/>
			<polygon style="opacity:0.5;fill:#00B3FC;" points="330.935,198.315 298.877,216.933 298.877,219.609 330.935,201.078 			"/>
			<polygon style="opacity:0.5;fill:#00B3FC;" points="322.562,209.329 322.562,210.908 330.935,206.068 330.935,204.467 			"/>
			<polygon style="opacity:0.5;fill:#00B3FC;" points="299.547,253.006 299.547,254.584 307.92,249.745 307.92,248.143 			"/>
			<polygon style="opacity:0.5;fill:#00B3FC;" points="324.973,211.629 324.973,213.214 330.935,209.768 330.935,208.166 			"/>
			<polygon style="opacity:0.5;fill:#2E57AA;" points="317.118,248.412 315.677,249.249 315.677,259.488 317.118,258.655 			"/>
			<polygon style="opacity:0.5;fill:#2E57AA;" points="352.981,227.606 351.54,228.443 351.54,238.682 352.981,237.849 			"/>
			<path style="opacity:0.5;fill:#2E57AA;" d="M326.765,224.107c-0.217,8.423-5.547,17.325-11.905,19.883
				c-6.358,2.558-11.336-2.197-11.119-10.621c0.218-8.423,5.548-17.325,11.906-19.883
				C322.004,210.927,326.982,215.683,326.765,224.107z"/>
			<path style="opacity:0.5;fill:#FFFFFF;" d="M320.56,226.773c-0.092,3.573-2.353,7.349-5.05,8.434
				c-2.697,1.085-4.809-0.932-4.717-4.505c0.092-3.573,2.353-7.349,5.05-8.434C318.541,221.183,320.652,223.2,320.56,226.773z"/>
		</g>
		<g>
			<polygon style="opacity:0.5;fill:#61DCFF;" points="363.54,174.749 339.797,188.538 339.797,234.387 363.54,220.662 			"/>
			<polygon style="opacity:0.5;fill:#00B3FC;" points="361.737,178.936 342.784,189.943 342.784,192.689 361.737,181.734 			"/>
			<polygon style="opacity:0.5;fill:#00B3FC;" points="352.46,189.795 342.784,195.414 342.784,196.467 352.46,190.874 			"/>
			<polygon style="opacity:0.5;fill:#00B3FC;" points="350.6,193.239 342.784,197.777 342.784,198.83 350.6,194.313 			"/>
			<polygon style="opacity:0.5;fill:#00B3FC;" points="350.6,195.581 342.784,200.12 342.784,201.173 350.6,196.656 			"/>
			<polygon style="opacity:0.5;fill:#00B3FC;" points="352.46,201.23 342.784,206.85 342.784,207.903 352.46,202.31 			"/>
			<polygon style="opacity:0.5;fill:#00B3FC;" points="350.6,204.674 342.784,209.213 342.784,210.266 350.6,205.749 			"/>
			<polygon style="opacity:0.5;fill:#00B3FC;" points="350.6,207.017 342.784,211.556 342.784,212.609 350.6,208.091 			"/>
			<polygon style="opacity:0.5;fill:#00B3FC;" points="352.46,212.649 342.784,218.268 342.784,219.321 352.46,213.728 			"/>
			<polygon style="opacity:0.5;fill:#00B3FC;" points="350.6,216.093 342.784,220.632 342.784,221.685 350.6,217.167 			"/>
			<polygon style="opacity:0.5;fill:#00B3FC;" points="350.6,218.436 342.784,222.974 342.784,224.027 350.6,219.51 			"/>
			<polygon style="opacity:0.5;fill:#00B3FC;" points="353.36,189.256 353.36,198.252 360.972,193.852 360.972,184.836 			"/>
			<polygon style="opacity:0.5;fill:#00B3FC;" points="353.36,200.455 353.36,209.451 360.972,205.051 360.972,196.034 			"/>
			<polygon style="opacity:0.5;fill:#00B3FC;" points="353.36,211.721 353.36,220.717 360.972,216.318 360.972,207.301 			"/>
			<polygon style="opacity:0.5;fill:#00B3FC;" points="353.36,222.92 353.36,224.665 360.972,220.265 360.972,218.5 			"/>
		</g>
	</g>
</g>
<g>
	<polygon style="fill:#2DC6EA;" points="240.631,147.019 234.932,150.309 234.932,176.474 240.631,173.184 	"/>
	<polygon style="fill:#61DCFF;" points="211.713,163.069 234.932,176.474 234.932,150.309 211.713,136.904 	"/>
	<polygon style="fill:#2DC6EA;" points="232.95,172.402 213.294,161.053 213.294,162.273 232.95,173.622 	"/>
	<polygon style="fill:#2DC6EA;" points="232.95,169.659 213.294,158.311 213.294,159.531 232.95,170.879 	"/>
	<polygon style="fill:#97EBFF;" points="211.713,136.904 217.412,133.745 240.631,147.019 234.932,150.309 	"/>
	<g>
		<path style="fill:#37A0F5;" d="M239.35,170.749c-0.026,1.019-0.671,2.096-1.44,2.405c-0.769,0.309-1.371-0.266-1.345-1.285
			c0.026-1.019,0.671-2.096,1.44-2.405C238.775,169.155,239.377,169.73,239.35,170.749z"/>
		<path style="fill:#FFFFFF;" d="M238.862,170.945c-0.017,0.662-0.436,1.361-0.935,1.562c-0.5,0.201-0.891-0.173-0.874-0.835
			c0.017-0.662,0.436-1.361,0.936-1.562C238.488,169.91,238.879,170.284,238.862,170.945z"/>
		<path style="fill:#FFFFFF;" d="M238.746,166.347c-0.015,0.577-0.38,1.187-0.815,1.362c-0.435,0.175-0.776-0.15-0.761-0.727
			c0.015-0.577,0.38-1.186,0.815-1.362C238.42,165.444,238.761,165.77,238.746,166.347z"/>
		<path style="fill:#FFFFFF;" d="M238.746,162.521c-0.015,0.577-0.38,1.186-0.815,1.362c-0.435,0.175-0.776-0.15-0.761-0.727
			c0.015-0.577,0.38-1.186,0.815-1.362C238.42,161.619,238.761,161.945,238.746,162.521z"/>
	</g>
</g>
</svg>
